<?xml version="1.0" encoding="UTF-8" standalone="no"?>
<!DOCTYPE svg PUBLIC "-//W3C//DTD SVG 1.1//EN"
 "http://www.w3.org/Graphics/SVG/1.1/DTD/svg11.dtd">
<!-- Generated by graphviz version 2.38.0 (20140413.2041)
 -->
<!-- Title: Ogre::HardwarePixelBuffer Pages: 1 -->
<svg width="762pt" height="274pt"
 viewBox="0.00 0.00 762.00 273.50" xmlns="http://www.w3.org/2000/svg" xmlns:xlink="http://www.w3.org/1999/xlink">
<g id="graph0" class="graph" transform="scale(1 1) rotate(0) translate(4 269.5)">
<title>Ogre::HardwarePixelBuffer</title>
<!-- Node1 -->
<g id="node1" class="node"><title>Node1</title>
<polygon fill="#bfbfbf" stroke="black" points="249,-152.5 249,-171.5 383,-171.5 383,-152.5 249,-152.5"/>
<text text-anchor="middle" x="316" y="-159.5" font-family="Helvetica,sans-Serif" font-size="10.00">Ogre::HardwarePixelBuffer</text>
</g>
<!-- Node4 -->
<g id="node4" class="node"><title>Node4</title>
<g id="a_node4"><a xlink:href="class_ogre_1_1_d3_d11_hardware_pixel_buffer.html" target="_top" xlink:title="Ogre::D3D11HardwarePixel\lBuffer">
<polygon fill="none" stroke="black" points="429.5,-235 429.5,-265 567.5,-265 567.5,-235 429.5,-235"/>
<text text-anchor="start" x="437.5" y="-253" font-family="Helvetica,sans-Serif" font-size="10.00">Ogre::D3D11HardwarePixel</text>
<text text-anchor="middle" x="498.5" y="-242" font-family="Helvetica,sans-Serif" font-size="10.00">Buffer</text>
</a>
</g>
</g>
<!-- Node1&#45;&gt;Node4 -->
<g id="edge3" class="edge"><title>Node1&#45;&gt;Node4</title>
<path fill="none" stroke="midnightblue" d="M338.664,-177.562C358.735,-191.441 389.808,-211.583 419,-225 426.928,-228.643 435.534,-231.97 444.046,-234.924"/>
<polygon fill="midnightblue" stroke="midnightblue" points="340.459,-174.547 330.262,-171.673 336.441,-180.279 340.459,-174.547"/>
</g>
<!-- Node5 -->
<g id="node5" class="node"><title>Node5</title>
<g id="a_node5"><a xlink:href="class_ogre_1_1_d3_d9_hardware_pixel_buffer.html" target="_top" xlink:title="Ogre::D3D9HardwarePixelBuffer">
<polygon fill="none" stroke="black" points="419,-196.5 419,-215.5 578,-215.5 578,-196.5 419,-196.5"/>
<text text-anchor="middle" x="498.5" y="-203.5" font-family="Helvetica,sans-Serif" font-size="10.00">Ogre::D3D9HardwarePixelBuffer</text>
</a>
</g>
</g>
<!-- Node1&#45;&gt;Node5 -->
<g id="edge4" class="edge"><title>Node1&#45;&gt;Node5</title>
<path fill="none" stroke="midnightblue" d="M366.1,-173.969C395.113,-181.041 431.345,-189.874 458.411,-196.471"/>
<polygon fill="midnightblue" stroke="midnightblue" points="366.71,-170.515 356.166,-171.547 365.052,-177.316 366.71,-170.515"/>
</g>
<!-- Node6 -->
<g id="node6" class="node"><title>Node6</title>
<g id="a_node6"><a xlink:href="class_ogre_1_1_g_l3_plus_hardware_pixel_buffer.html" target="_top" xlink:title="Ogre::GL3PlusHardwarePixel\lBuffer">
<polygon fill="none" stroke="black" points="426,-147 426,-177 571,-177 571,-147 426,-147"/>
<text text-anchor="start" x="434" y="-165" font-family="Helvetica,sans-Serif" font-size="10.00">Ogre::GL3PlusHardwarePixel</text>
<text text-anchor="middle" x="498.5" y="-154" font-family="Helvetica,sans-Serif" font-size="10.00">Buffer</text>
</a>
</g>
</g>
<!-- Node1&#45;&gt;Node6 -->
<g id="edge5" class="edge"><title>Node1&#45;&gt;Node6</title>
<path fill="none" stroke="midnightblue" d="M393.398,-162C404.157,-162 415.184,-162 425.85,-162"/>
<polygon fill="midnightblue" stroke="midnightblue" points="393.187,-158.5 383.187,-162 393.187,-165.5 393.187,-158.5"/>
</g>
<!-- Node9 -->
<g id="node9" class="node"><title>Node9</title>
<g id="a_node9"><a xlink:href="class_ogre_1_1_g_l_e_s2_hardware_pixel_buffer.html" target="_top" xlink:title="Ogre::GLES2HardwarePixel\lBuffer">
<polygon fill="none" stroke="black" points="429,-98 429,-128 568,-128 568,-98 429,-98"/>
<text text-anchor="start" x="437" y="-116" font-family="Helvetica,sans-Serif" font-size="10.00">Ogre::GLES2HardwarePixel</text>
<text text-anchor="middle" x="498.5" y="-105" font-family="Helvetica,sans-Serif" font-size="10.00">Buffer</text>
</a>
</g>
</g>
<!-- Node1&#45;&gt;Node9 -->
<g id="edge8" class="edge"><title>Node1&#45;&gt;Node9</title>
<path fill="none" stroke="midnightblue" d="M361.902,-149.81C386.182,-143.219 416.379,-135.022 442.109,-128.037"/>
<polygon fill="midnightblue" stroke="midnightblue" points="360.964,-146.438 352.231,-152.436 362.798,-153.194 360.964,-146.438"/>
</g>
<!-- Node12 -->
<g id="node12" class="node"><title>Node12</title>
<g id="a_node12"><a xlink:href="class_ogre_1_1_g_l_hardware_pixel_buffer.html" target="_top" xlink:title="Ogre::GLHardwarePixelBuffer">
<polygon fill="none" stroke="black" points="425.5,-38.5 425.5,-57.5 571.5,-57.5 571.5,-38.5 425.5,-38.5"/>
<text text-anchor="middle" x="498.5" y="-45.5" font-family="Helvetica,sans-Serif" font-size="10.00">Ogre::GLHardwarePixelBuffer</text>
</a>
</g>
</g>
<!-- Node1&#45;&gt;Node12 -->
<g id="edge11" class="edge"><title>Node1&#45;&gt;Node12</title>
<path fill="none" stroke="midnightblue" d="M336.902,-146.124C357.006,-130.437 389.258,-106.212 419,-88 437.914,-76.4179 460.586,-65.1235 476.691,-57.5066"/>
<polygon fill="midnightblue" stroke="midnightblue" points="334.518,-143.546 328.823,-152.48 338.846,-149.048 334.518,-143.546"/>
</g>
<!-- Node2 -->
<g id="node2" class="node"><title>Node2</title>
<g id="a_node2"><a xlink:href="class_ogre_1_1_hardware_buffer.html" target="_top" xlink:title="Abstract class defining common features of hardware buffers. ">
<polygon fill="none" stroke="black" points="101,-152.5 101,-171.5 213,-171.5 213,-152.5 101,-152.5"/>
<text text-anchor="middle" x="157" y="-159.5" font-family="Helvetica,sans-Serif" font-size="10.00">Ogre::HardwareBuffer</text>
</a>
</g>
</g>
<!-- Node2&#45;&gt;Node1 -->
<g id="edge1" class="edge"><title>Node2&#45;&gt;Node1</title>
<path fill="none" stroke="midnightblue" d="M223.46,-162C231.851,-162 240.447,-162 248.85,-162"/>
<polygon fill="midnightblue" stroke="midnightblue" points="223.352,-158.5 213.352,-162 223.352,-165.5 223.352,-158.5"/>
</g>
<!-- Node3 -->
<g id="node3" class="node"><title>Node3</title>
<g id="a_node3"><a xlink:href="class_ogre_1_1_allocated_object.html" target="_top" xlink:title="Superclass for all objects that wish to use custom memory allocators when their new / delete operator...">
<polygon fill="none" stroke="black" points="0,-152.5 0,-171.5 65,-171.5 65,-152.5 0,-152.5"/>
<text text-anchor="middle" x="32.5" y="-159.5" font-family="Helvetica,sans-Serif" font-size="10.00">BufferAlloc</text>
</a>
</g>
</g>
<!-- Node3&#45;&gt;Node2 -->
<g id="edge2" class="edge"><title>Node3&#45;&gt;Node2</title>
<path fill="none" stroke="midnightblue" d="M75.1571,-162C83.4035,-162 92.1796,-162 100.795,-162"/>
<polygon fill="midnightblue" stroke="midnightblue" points="75.0468,-158.5 65.0468,-162 75.0468,-165.5 75.0468,-158.5"/>
</g>
<!-- Node7 -->
<g id="node7" class="node"><title>Node7</title>
<g id="a_node7"><a xlink:href="class_ogre_1_1_g_l3_plus_render_buffer.html" target="_top" xlink:title="Renderbuffer surface. ">
<polygon fill="none" stroke="black" points="614.5,-190.5 614.5,-209.5 753.5,-209.5 753.5,-190.5 614.5,-190.5"/>
<text text-anchor="middle" x="684" y="-197.5" font-family="Helvetica,sans-Serif" font-size="10.00">Ogre::GL3PlusRenderBuffer</text>
</a>
</g>
</g>
<!-- Node6&#45;&gt;Node7 -->
<g id="edge6" class="edge"><title>Node6&#45;&gt;Node7</title>
<path fill="none" stroke="midnightblue" d="M581.172,-178.913C600.313,-182.877 620.047,-186.963 636.986,-190.471"/>
<polygon fill="midnightblue" stroke="midnightblue" points="581.736,-175.456 571.234,-176.855 580.317,-182.31 581.736,-175.456"/>
</g>
<!-- Node8 -->
<g id="node8" class="node"><title>Node8</title>
<g id="a_node8"><a xlink:href="class_ogre_1_1_g_l3_plus_texture_buffer.html" target="_top" xlink:title="Texture surface. ">
<polygon fill="none" stroke="black" points="614,-152.5 614,-171.5 754,-171.5 754,-152.5 614,-152.5"/>
<text text-anchor="middle" x="684" y="-159.5" font-family="Helvetica,sans-Serif" font-size="10.00">Ogre::GL3PlusTextureBuffer</text>
</a>
</g>
</g>
<!-- Node6&#45;&gt;Node8 -->
<g id="edge7" class="edge"><title>Node6&#45;&gt;Node8</title>
<path fill="none" stroke="midnightblue" d="M581.481,-162C592.247,-162 603.194,-162 613.721,-162"/>
<polygon fill="midnightblue" stroke="midnightblue" points="581.234,-158.5 571.234,-162 581.234,-165.5 581.234,-158.5"/>
</g>
<!-- Node10 -->
<g id="node10" class="node"><title>Node10</title>
<g id="a_node10"><a xlink:href="class_ogre_1_1_g_l_e_s2_render_buffer.html" target="_top" xlink:title="Renderbuffer surface. ">
<polygon fill="none" stroke="black" points="617.5,-114.5 617.5,-133.5 750.5,-133.5 750.5,-114.5 617.5,-114.5"/>
<text text-anchor="middle" x="684" y="-121.5" font-family="Helvetica,sans-Serif" font-size="10.00">Ogre::GLES2RenderBuffer</text>
</a>
</g>
</g>
<!-- Node9&#45;&gt;Node10 -->
<g id="edge9" class="edge"><title>Node9&#45;&gt;Node10</title>
<path fill="none" stroke="midnightblue" d="M578.383,-117.729C591.337,-118.505 604.64,-119.303 617.231,-120.057"/>
<polygon fill="midnightblue" stroke="midnightblue" points="578.281,-114.216 568.09,-117.112 577.862,-121.204 578.281,-114.216"/>
</g>
<!-- Node11 -->
<g id="node11" class="node"><title>Node11</title>
<g id="a_node11"><a xlink:href="class_ogre_1_1_g_l_e_s2_texture_buffer.html" target="_top" xlink:title="Texture surface. ">
<polygon fill="none" stroke="black" points="617,-76.5 617,-95.5 751,-95.5 751,-76.5 617,-76.5"/>
<text text-anchor="middle" x="684" y="-83.5" font-family="Helvetica,sans-Serif" font-size="10.00">Ogre::GLES2TextureBuffer</text>
</a>
</g>
</g>
<!-- Node9&#45;&gt;Node11 -->
<g id="edge10" class="edge"><title>Node9&#45;&gt;Node11</title>
<path fill="none" stroke="midnightblue" d="M578.188,-101.422C591.515,-99.461 605.217,-97.4449 618.139,-95.5436"/>
<polygon fill="midnightblue" stroke="midnightblue" points="577.474,-97.9893 568.09,-102.908 578.493,-104.915 577.474,-97.9893"/>
</g>
<!-- Node13 -->
<g id="node13" class="node"><title>Node13</title>
<g id="a_node13"><a xlink:href="class_ogre_1_1_g_l_render_buffer.html" target="_top" xlink:title="Renderbuffer surface. ">
<polygon fill="none" stroke="black" points="627,-38.5 627,-57.5 741,-57.5 741,-38.5 627,-38.5"/>
<text text-anchor="middle" x="684" y="-45.5" font-family="Helvetica,sans-Serif" font-size="10.00">Ogre::GLRenderBuffer</text>
</a>
</g>
</g>
<!-- Node12&#45;&gt;Node13 -->
<g id="edge12" class="edge"><title>Node12&#45;&gt;Node13</title>
<path fill="none" stroke="midnightblue" d="M582.179,-48C597.335,-48 612.823,-48 626.97,-48"/>
<polygon fill="midnightblue" stroke="midnightblue" points="581.761,-44.5001 571.761,-48 581.761,-51.5001 581.761,-44.5001"/>
</g>
<!-- Node14 -->
<g id="node14" class="node"><title>Node14</title>
<g id="a_node14"><a xlink:href="class_ogre_1_1_g_l_texture_buffer.html" target="_top" xlink:title="Texture surface. ">
<polygon fill="none" stroke="black" points="626,-0.5 626,-19.5 742,-19.5 742,-0.5 626,-0.5"/>
<text text-anchor="middle" x="684" y="-7.5" font-family="Helvetica,sans-Serif" font-size="10.00">Ogre::GLTextureBuffer</text>
</a>
</g>
</g>
<!-- Node12&#45;&gt;Node14 -->
<g id="edge13" class="edge"><title>Node12&#45;&gt;Node14</title>
<path fill="none" stroke="midnightblue" d="M555.907,-36.319C581.93,-30.9301 612.43,-24.6139 637.028,-19.5201"/>
<polygon fill="midnightblue" stroke="midnightblue" points="554.887,-32.9558 545.805,-38.411 556.307,-39.8104 554.887,-32.9558"/>
</g>
</g>
</svg>
