<?xml version="1.0" encoding="UTF-8" standalone="no"?>
<!DOCTYPE svg PUBLIC "-//W3C//DTD SVG 1.1//EN"
 "http://www.w3.org/Graphics/SVG/1.1/DTD/svg11.dtd">
<!-- Generated by graphviz version 2.38.0 (20140413.2041)
 -->
<!-- Title: Ogre::GL3PlusHardwarePixelBuffer Pages: 1 -->
<svg width="306pt" height="263pt"
 viewBox="0.00 0.00 305.50 263.00" xmlns="http://www.w3.org/2000/svg" xmlns:xlink="http://www.w3.org/1999/xlink">
<g id="graph0" class="graph" transform="scale(1 1) rotate(0) translate(4 259)">
<title>Ogre::GL3PlusHardwarePixelBuffer</title>
<!-- Node1 -->
<g id="node1" class="node"><title>Node1</title>
<polygon fill="#bfbfbf" stroke="black" points="76,-56.5 76,-86.5 221,-86.5 221,-56.5 76,-56.5"/>
<text text-anchor="start" x="84" y="-74.5" font-family="Helvetica,sans-Serif" font-size="10.00">Ogre::GL3PlusHardwarePixel</text>
<text text-anchor="middle" x="148.5" y="-63.5" font-family="Helvetica,sans-Serif" font-size="10.00">Buffer</text>
</g>
<!-- Node5 -->
<g id="node5" class="node"><title>Node5</title>
<g id="a_node5"><a xlink:href="class_ogre_1_1_g_l3_plus_render_buffer.html" target="_top" xlink:title="Renderbuffer surface. ">
<polygon fill="none" stroke="black" points="0,-0.5 0,-19.5 139,-19.5 139,-0.5 0,-0.5"/>
<text text-anchor="middle" x="69.5" y="-7.5" font-family="Helvetica,sans-Serif" font-size="10.00">Ogre::GL3PlusRenderBuffer</text>
</a>
</g>
</g>
<!-- Node1&#45;&gt;Node5 -->
<g id="edge4" class="edge"><title>Node1&#45;&gt;Node5</title>
<path fill="none" stroke="midnightblue" d="M121.532,-50.1886C107.701,-39.7719 91.584,-27.6329 80.9952,-19.6578"/>
<polygon fill="midnightblue" stroke="midnightblue" points="119.685,-53.1789 129.778,-56.3993 123.896,-47.5874 119.685,-53.1789"/>
</g>
<!-- Node6 -->
<g id="node6" class="node"><title>Node6</title>
<g id="a_node6"><a xlink:href="class_ogre_1_1_g_l3_plus_texture_buffer.html" target="_top" xlink:title="Texture surface. ">
<polygon fill="none" stroke="black" points="157.5,-0.5 157.5,-19.5 297.5,-19.5 297.5,-0.5 157.5,-0.5"/>
<text text-anchor="middle" x="227.5" y="-7.5" font-family="Helvetica,sans-Serif" font-size="10.00">Ogre::GL3PlusTextureBuffer</text>
</a>
</g>
</g>
<!-- Node1&#45;&gt;Node6 -->
<g id="edge5" class="edge"><title>Node1&#45;&gt;Node6</title>
<path fill="none" stroke="midnightblue" d="M175.468,-50.1886C189.299,-39.7719 205.416,-27.6329 216.005,-19.6578"/>
<polygon fill="midnightblue" stroke="midnightblue" points="173.104,-47.5874 167.222,-56.3993 177.315,-53.1789 173.104,-47.5874"/>
</g>
<!-- Node2 -->
<g id="node2" class="node"><title>Node2</title>
<g id="a_node2"><a xlink:href="class_ogre_1_1_hardware_pixel_buffer.html" target="_top" xlink:title="Specialisation of HardwareBuffer for a pixel buffer. ">
<polygon fill="none" stroke="black" points="81.5,-123.5 81.5,-142.5 215.5,-142.5 215.5,-123.5 81.5,-123.5"/>
<text text-anchor="middle" x="148.5" y="-130.5" font-family="Helvetica,sans-Serif" font-size="10.00">Ogre::HardwarePixelBuffer</text>
</a>
</g>
</g>
<!-- Node2&#45;&gt;Node1 -->
<g id="edge1" class="edge"><title>Node2&#45;&gt;Node1</title>
<path fill="none" stroke="midnightblue" d="M148.5,-113.235C148.5,-104.586 148.5,-94.4969 148.5,-86.523"/>
<polygon fill="midnightblue" stroke="midnightblue" points="145,-113.475 148.5,-123.475 152,-113.475 145,-113.475"/>
</g>
<!-- Node3 -->
<g id="node3" class="node"><title>Node3</title>
<g id="a_node3"><a xlink:href="class_ogre_1_1_hardware_buffer.html" target="_top" xlink:title="Abstract class defining common features of hardware buffers. ">
<polygon fill="none" stroke="black" points="92.5,-179.5 92.5,-198.5 204.5,-198.5 204.5,-179.5 92.5,-179.5"/>
<text text-anchor="middle" x="148.5" y="-186.5" font-family="Helvetica,sans-Serif" font-size="10.00">Ogre::HardwareBuffer</text>
</a>
</g>
</g>
<!-- Node3&#45;&gt;Node2 -->
<g id="edge2" class="edge"><title>Node3&#45;&gt;Node2</title>
<path fill="none" stroke="midnightblue" d="M148.5,-168.805C148.5,-159.91 148.5,-149.78 148.5,-142.751"/>
<polygon fill="midnightblue" stroke="midnightblue" points="145,-169.083 148.5,-179.083 152,-169.083 145,-169.083"/>
</g>
<!-- Node4 -->
<g id="node4" class="node"><title>Node4</title>
<g id="a_node4"><a xlink:href="class_ogre_1_1_allocated_object.html" target="_top" xlink:title="Superclass for all objects that wish to use custom memory allocators when their new / delete operator...">
<polygon fill="none" stroke="black" points="116,-235.5 116,-254.5 181,-254.5 181,-235.5 116,-235.5"/>
<text text-anchor="middle" x="148.5" y="-242.5" font-family="Helvetica,sans-Serif" font-size="10.00">BufferAlloc</text>
</a>
</g>
</g>
<!-- Node4&#45;&gt;Node3 -->
<g id="edge3" class="edge"><title>Node4&#45;&gt;Node3</title>
<path fill="none" stroke="midnightblue" d="M148.5,-224.805C148.5,-215.91 148.5,-205.78 148.5,-198.751"/>
<polygon fill="midnightblue" stroke="midnightblue" points="145,-225.083 148.5,-235.083 152,-225.083 145,-225.083"/>
</g>
</g>
</svg>
