<?xml version="1.0" encoding="UTF-8" standalone="no"?>
<!DOCTYPE svg PUBLIC "-//W3C//DTD SVG 1.1//EN"
 "http://www.w3.org/Graphics/SVG/1.1/DTD/svg11.dtd">
<!-- Generated by graphviz version 2.38.0 (20140413.2041)
 -->
<!-- Title: Ogre::HardwareBuffer Pages: 1 -->
<svg width="776pt" height="1459pt"
 viewBox="0.00 0.00 776.00 1458.50" xmlns="http://www.w3.org/2000/svg" xmlns:xlink="http://www.w3.org/1999/xlink">
<g id="graph0" class="graph" transform="scale(1 1) rotate(0) translate(4 1454.5)">
<title>Ogre::HardwareBuffer</title>
<!-- Node1 -->
<g id="node1" class="node"><title>Node1</title>
<polygon fill="#bfbfbf" stroke="black" points="101,-977.5 101,-996.5 213,-996.5 213,-977.5 101,-977.5"/>
<text text-anchor="middle" x="157" y="-984.5" font-family="Helvetica,sans-Serif" font-size="10.00">Ogre::HardwareBuffer</text>
</g>
<!-- Node3 -->
<g id="node3" class="node"><title>Node3</title>
<g id="a_node3"><a xlink:href="class_ogre_1_1_d3_d11_hardware_buffer.html" target="_top" xlink:title="Base implementation of a D3D11 buffer, dealing with all the common aspects. ">
<polygon fill="none" stroke="black" points="250.5,-1365.5 250.5,-1384.5 393.5,-1384.5 393.5,-1365.5 250.5,-1365.5"/>
<text text-anchor="middle" x="322" y="-1372.5" font-family="Helvetica,sans-Serif" font-size="10.00">Ogre::D3D11HardwareBuffer</text>
</a>
</g>
</g>
<!-- Node1&#45;&gt;Node3 -->
<g id="edge2" class="edge"><title>Node1&#45;&gt;Node3</title>
<path fill="none" stroke="midnightblue" d="M160.205,-1006.6C168.338,-1075.48 198.808,-1304.99 249,-1356 252.808,-1359.87 257.305,-1362.98 262.161,-1365.48"/>
<polygon fill="midnightblue" stroke="midnightblue" points="163.68,-1006.18 159.055,-996.651 156.726,-1006.99 163.68,-1006.18"/>
</g>
<!-- Node4 -->
<g id="node4" class="node"><title>Node4</title>
<g id="a_node4"><a xlink:href="class_ogre_1_1_hardware_counter_buffer.html" target="_top" xlink:title="Specialisation of HardwareBuffer for a counter buffer. ">
<polygon fill="none" stroke="black" points="249,-1327.5 249,-1346.5 395,-1346.5 395,-1327.5 249,-1327.5"/>
<text text-anchor="middle" x="322" y="-1334.5" font-family="Helvetica,sans-Serif" font-size="10.00">Ogre::HardwareCounterBuffer</text>
</a>
</g>
</g>
<!-- Node1&#45;&gt;Node4 -->
<g id="edge3" class="edge"><title>Node1&#45;&gt;Node4</title>
<path fill="none" stroke="midnightblue" d="M166.915,-1006.14C197.067,-1070.89 294.583,-1280.28 316.569,-1327.49"/>
<polygon fill="midnightblue" stroke="midnightblue" points="169.924,-1004.31 162.53,-996.726 163.579,-1007.27 169.924,-1004.31"/>
</g>
<!-- Node8 -->
<g id="node8" class="node"><title>Node8</title>
<g id="a_node8"><a xlink:href="class_ogre_1_1_hardware_index_buffer.html" target="_top" xlink:title="Specialisation of HardwareBuffer for vertex index buffers, still abstract. ">
<polygon fill="none" stroke="black" points="254,-1092.5 254,-1111.5 390,-1111.5 390,-1092.5 254,-1092.5"/>
<text text-anchor="middle" x="322" y="-1099.5" font-family="Helvetica,sans-Serif" font-size="10.00">Ogre::HardwareIndexBuffer</text>
</a>
</g>
</g>
<!-- Node1&#45;&gt;Node8 -->
<g id="edge7" class="edge"><title>Node1&#45;&gt;Node8</title>
<path fill="none" stroke="midnightblue" d="M179.976,-1002.5C214.067,-1026.56 278.717,-1072.17 307.076,-1092.18"/>
<polygon fill="midnightblue" stroke="midnightblue" points="181.806,-999.512 171.617,-996.607 177.77,-1005.23 181.806,-999.512"/>
</g>
<!-- Node17 -->
<g id="node17" class="node"><title>Node17</title>
<g id="a_node17"><a xlink:href="class_ogre_1_1_hardware_pixel_buffer.html" target="_top" xlink:title="Specialisation of HardwareBuffer for a pixel buffer. ">
<polygon fill="none" stroke="black" points="255,-840.5 255,-859.5 389,-859.5 389,-840.5 255,-840.5"/>
<text text-anchor="middle" x="322" y="-847.5" font-family="Helvetica,sans-Serif" font-size="10.00">Ogre::HardwarePixelBuffer</text>
</a>
</g>
</g>
<!-- Node1&#45;&gt;Node17 -->
<g id="edge16" class="edge"><title>Node1&#45;&gt;Node17</title>
<path fill="none" stroke="midnightblue" d="M177.329,-970.755C211.503,-942.032 281.599,-883.116 309.333,-859.806"/>
<polygon fill="midnightblue" stroke="midnightblue" points="174.865,-968.253 169.462,-977.366 179.369,-973.612 174.865,-968.253"/>
</g>
<!-- Node29 -->
<g id="node29" class="node"><title>Node29</title>
<g id="a_node29"><a xlink:href="class_ogre_1_1_hardware_uniform_buffer.html" target="_top" xlink:title="Specialisation of HardwareBuffer for a uniform buffer. ">
<polygon fill="none" stroke="black" points="249,-558.5 249,-577.5 395,-577.5 395,-558.5 249,-558.5"/>
<text text-anchor="middle" x="322" y="-565.5" font-family="Helvetica,sans-Serif" font-size="10.00">Ogre::HardwareUniformBuffer</text>
</a>
</g>
</g>
<!-- Node1&#45;&gt;Node29 -->
<g id="edge28" class="edge"><title>Node1&#45;&gt;Node29</title>
<path fill="none" stroke="midnightblue" d="M165.356,-968.09C193.826,-894.907 296.232,-631.669 317.224,-577.707"/>
<polygon fill="midnightblue" stroke="midnightblue" points="162.074,-966.873 161.711,-977.461 168.598,-969.411 162.074,-966.873"/>
</g>
<!-- Node37 -->
<g id="node37" class="node"><title>Node37</title>
<g id="a_node37"><a xlink:href="class_ogre_1_1_hardware_vertex_buffer.html" target="_top" xlink:title="Specialisation of HardwareBuffer for a vertex buffer. ">
<polygon fill="none" stroke="black" points="252,-191.5 252,-210.5 392,-210.5 392,-191.5 252,-191.5"/>
<text text-anchor="middle" x="322" y="-198.5" font-family="Helvetica,sans-Serif" font-size="10.00">Ogre::HardwareVertexBuffer</text>
</a>
</g>
</g>
<!-- Node1&#45;&gt;Node37 -->
<g id="edge36" class="edge"><title>Node1&#45;&gt;Node37</title>
<path fill="none" stroke="midnightblue" d="M162.073,-967.358C185.457,-854.601 302.169,-291.806 318.981,-210.736"/>
<polygon fill="midnightblue" stroke="midnightblue" points="158.606,-966.843 160.002,-977.346 165.46,-968.265 158.606,-966.843"/>
</g>
<!-- Node2 -->
<g id="node2" class="node"><title>Node2</title>
<g id="a_node2"><a xlink:href="class_ogre_1_1_allocated_object.html" target="_top" xlink:title="Superclass for all objects that wish to use custom memory allocators when their new / delete operator...">
<polygon fill="none" stroke="black" points="0,-977.5 0,-996.5 65,-996.5 65,-977.5 0,-977.5"/>
<text text-anchor="middle" x="32.5" y="-984.5" font-family="Helvetica,sans-Serif" font-size="10.00">BufferAlloc</text>
</a>
</g>
</g>
<!-- Node2&#45;&gt;Node1 -->
<g id="edge1" class="edge"><title>Node2&#45;&gt;Node1</title>
<path fill="none" stroke="midnightblue" d="M75.1571,-987C83.4035,-987 92.1796,-987 100.795,-987"/>
<polygon fill="midnightblue" stroke="midnightblue" points="75.0468,-983.5 65.0468,-987 75.0468,-990.5 75.0468,-983.5"/>
</g>
<!-- Node5 -->
<g id="node5" class="node"><title>Node5</title>
<g id="a_node5"><a xlink:href="class_ogre_1_1_default_hardware_counter_buffer.html" target="_top" xlink:title="Specialisation of HardwareCounterBuffer for emulation. ">
<polygon fill="none" stroke="black" points="435.5,-1420 435.5,-1450 587.5,-1450 587.5,-1420 435.5,-1420"/>
<text text-anchor="start" x="443.5" y="-1438" font-family="Helvetica,sans-Serif" font-size="10.00">Ogre::DefaultHardwareCounter</text>
<text text-anchor="middle" x="511.5" y="-1427" font-family="Helvetica,sans-Serif" font-size="10.00">Buffer</text>
</a>
</g>
</g>
<!-- Node4&#45;&gt;Node5 -->
<g id="edge4" class="edge"><title>Node4&#45;&gt;Node5</title>
<path fill="none" stroke="midnightblue" d="M386.3,-1350.72C389.343,-1352.29 392.265,-1354.05 395,-1356 418.469,-1372.77 407.929,-1392.69 431,-1410 436.092,-1413.82 441.782,-1417.07 447.714,-1419.82"/>
<polygon fill="midnightblue" stroke="midnightblue" points="387.434,-1347.39 376.875,-1346.52 384.585,-1353.79 387.434,-1347.39"/>
</g>
<!-- Node6 -->
<g id="node6" class="node"><title>Node6</title>
<g id="a_node6"><a xlink:href="class_ogre_1_1_g_l3_plus_default_hardware_counter_buffer.html" target="_top" xlink:title="Specialisation of HardwareCounterBuffer for emulation. ">
<polygon fill="none" stroke="black" points="434,-1371 434,-1401 589,-1401 589,-1371 434,-1371"/>
<text text-anchor="start" x="442" y="-1389" font-family="Helvetica,sans-Serif" font-size="10.00">Ogre::GL3PlusDefaultHardware</text>
<text text-anchor="middle" x="511.5" y="-1378" font-family="Helvetica,sans-Serif" font-size="10.00">CounterBuffer</text>
</a>
</g>
</g>
<!-- Node4&#45;&gt;Node6 -->
<g id="edge5" class="edge"><title>Node4&#45;&gt;Node6</title>
<path fill="none" stroke="midnightblue" d="M369.308,-1349.1C394.587,-1355.71 426.114,-1363.95 452.961,-1370.96"/>
<polygon fill="midnightblue" stroke="midnightblue" points="370.157,-1345.71 359.597,-1346.56 368.387,-1352.48 370.157,-1345.71"/>
</g>
<!-- Node7 -->
<g id="node7" class="node"><title>Node7</title>
<g id="a_node7"><a xlink:href="class_ogre_1_1_g_l3_plus_hardware_counter_buffer.html" target="_top" xlink:title="Specialisation of HardwareCounterBuffer for OpenGL. ">
<polygon fill="none" stroke="black" points="432.5,-1322 432.5,-1352 590.5,-1352 590.5,-1322 432.5,-1322"/>
<text text-anchor="start" x="440.5" y="-1340" font-family="Helvetica,sans-Serif" font-size="10.00">Ogre::GL3PlusHardwareCounter</text>
<text text-anchor="middle" x="511.5" y="-1329" font-family="Helvetica,sans-Serif" font-size="10.00">Buffer</text>
</a>
</g>
</g>
<!-- Node4&#45;&gt;Node7 -->
<g id="edge6" class="edge"><title>Node4&#45;&gt;Node7</title>
<path fill="none" stroke="midnightblue" d="M405.307,-1337C414.307,-1337 423.45,-1337 432.397,-1337"/>
<polygon fill="midnightblue" stroke="midnightblue" points="405.224,-1333.5 395.224,-1337 405.224,-1340.5 405.224,-1333.5"/>
</g>
<!-- Node9 -->
<g id="node9" class="node"><title>Node9</title>
<g id="a_node9"><a xlink:href="class_ogre_1_1_d3_d11_hardware_index_buffer.html" target="_top" xlink:title="Ogre::D3D11HardwareIndex\lBuffer">
<polygon fill="none" stroke="black" points="441.5,-1273 441.5,-1303 581.5,-1303 581.5,-1273 441.5,-1273"/>
<text text-anchor="start" x="449.5" y="-1291" font-family="Helvetica,sans-Serif" font-size="10.00">Ogre::D3D11HardwareIndex</text>
<text text-anchor="middle" x="511.5" y="-1280" font-family="Helvetica,sans-Serif" font-size="10.00">Buffer</text>
</a>
</g>
</g>
<!-- Node8&#45;&gt;Node9 -->
<g id="edge8" class="edge"><title>Node8&#45;&gt;Node9</title>
<path fill="none" stroke="midnightblue" d="M330.74,-1121.22C345.292,-1154.94 379.931,-1224.79 431,-1263 436.213,-1266.9 442.05,-1270.2 448.131,-1272.99"/>
<polygon fill="midnightblue" stroke="midnightblue" points="333.815,-1119.5 326.726,-1111.63 327.358,-1122.2 333.815,-1119.5"/>
</g>
<!-- Node10 -->
<g id="node10" class="node"><title>Node10</title>
<g id="a_node10"><a xlink:href="class_ogre_1_1_d3_d9_hardware_index_buffer.html" target="_top" xlink:title="Ogre::D3D9HardwareIndexBuffer">
<polygon fill="none" stroke="black" points="431,-1234.5 431,-1253.5 592,-1253.5 592,-1234.5 431,-1234.5"/>
<text text-anchor="middle" x="511.5" y="-1241.5" font-family="Helvetica,sans-Serif" font-size="10.00">Ogre::D3D9HardwareIndexBuffer</text>
</a>
</g>
</g>
<!-- Node8&#45;&gt;Node10 -->
<g id="edge9" class="edge"><title>Node8&#45;&gt;Node10</title>
<path fill="none" stroke="midnightblue" d="M334.171,-1120.52C351.459,-1147.54 387.302,-1197.43 431,-1224 438.175,-1228.36 446.265,-1231.78 454.468,-1234.45"/>
<polygon fill="midnightblue" stroke="midnightblue" points="336.923,-1118.32 328.661,-1111.69 330.984,-1122.02 336.923,-1118.32"/>
</g>
<!-- Node11 -->
<g id="node11" class="node"><title>Node11</title>
<g id="a_node11"><a xlink:href="class_ogre_1_1_default_hardware_index_buffer.html" target="_top" xlink:title="Specialisation of HardwareIndexBuffer for emulation. ">
<polygon fill="none" stroke="black" points="441,-1185 441,-1215 582,-1215 582,-1185 441,-1185"/>
<text text-anchor="start" x="449" y="-1203" font-family="Helvetica,sans-Serif" font-size="10.00">Ogre::DefaultHardwareIndex</text>
<text text-anchor="middle" x="511.5" y="-1192" font-family="Helvetica,sans-Serif" font-size="10.00">Buffer</text>
</a>
</g>
</g>
<!-- Node8&#45;&gt;Node11 -->
<g id="edge10" class="edge"><title>Node8&#45;&gt;Node11</title>
<path fill="none" stroke="midnightblue" d="M342.683,-1117.89C363.555,-1134.11 398.005,-1159.08 431,-1175 438.688,-1178.71 447.055,-1182.04 455.38,-1184.96"/>
<polygon fill="midnightblue" stroke="midnightblue" points="344.633,-1114.97 334.612,-1111.53 340.3,-1120.47 344.633,-1114.97"/>
</g>
<!-- Node12 -->
<g id="node12" class="node"><title>Node12</title>
<g id="a_node12"><a xlink:href="class_ogre_1_1_g_l3_plus_default_hardware_index_buffer.html" target="_top" xlink:title="Specialisation of HardwareIndexBuffer for emulation. ">
<polygon fill="none" stroke="black" points="434,-1136 434,-1166 589,-1166 589,-1136 434,-1136"/>
<text text-anchor="start" x="442" y="-1154" font-family="Helvetica,sans-Serif" font-size="10.00">Ogre::GL3PlusDefaultHardware</text>
<text text-anchor="middle" x="511.5" y="-1143" font-family="Helvetica,sans-Serif" font-size="10.00">IndexBuffer</text>
</a>
</g>
</g>
<!-- Node8&#45;&gt;Node12 -->
<g id="edge11" class="edge"><title>Node8&#45;&gt;Node12</title>
<path fill="none" stroke="midnightblue" d="M369.308,-1114.1C394.587,-1120.71 426.114,-1128.95 452.961,-1135.96"/>
<polygon fill="midnightblue" stroke="midnightblue" points="370.157,-1110.71 359.597,-1111.56 368.387,-1117.48 370.157,-1110.71"/>
</g>
<!-- Node13 -->
<g id="node13" class="node"><title>Node13</title>
<g id="a_node13"><a xlink:href="class_ogre_1_1_g_l3_plus_hardware_index_buffer.html" target="_top" xlink:title="Ogre::GL3PlusHardwareIndex\lBuffer">
<polygon fill="none" stroke="black" points="438,-1087 438,-1117 585,-1117 585,-1087 438,-1087"/>
<text text-anchor="start" x="446" y="-1105" font-family="Helvetica,sans-Serif" font-size="10.00">Ogre::GL3PlusHardwareIndex</text>
<text text-anchor="middle" x="511.5" y="-1094" font-family="Helvetica,sans-Serif" font-size="10.00">Buffer</text>
</a>
</g>
</g>
<!-- Node8&#45;&gt;Node13 -->
<g id="edge12" class="edge"><title>Node8&#45;&gt;Node13</title>
<path fill="none" stroke="midnightblue" d="M400.43,-1102C412.787,-1102 425.534,-1102 437.776,-1102"/>
<polygon fill="midnightblue" stroke="midnightblue" points="400.162,-1098.5 390.162,-1102 400.162,-1105.5 400.162,-1098.5"/>
</g>
<!-- Node14 -->
<g id="node14" class="node"><title>Node14</title>
<g id="a_node14"><a xlink:href="class_ogre_1_1_g_l_default_hardware_index_buffer.html" target="_top" xlink:title="Specialisation of HardwareIndexBuffer for emulation. ">
<polygon fill="none" stroke="black" points="434.5,-1038 434.5,-1068 588.5,-1068 588.5,-1038 434.5,-1038"/>
<text text-anchor="start" x="442.5" y="-1056" font-family="Helvetica,sans-Serif" font-size="10.00">Ogre::GLDefaultHardwareIndex</text>
<text text-anchor="middle" x="511.5" y="-1045" font-family="Helvetica,sans-Serif" font-size="10.00">Buffer</text>
</a>
</g>
</g>
<!-- Node8&#45;&gt;Node14 -->
<g id="edge13" class="edge"><title>Node8&#45;&gt;Node14</title>
<path fill="none" stroke="midnightblue" d="M369.308,-1089.9C394.587,-1083.29 426.114,-1075.05 452.961,-1068.04"/>
<polygon fill="midnightblue" stroke="midnightblue" points="368.387,-1086.52 359.597,-1092.44 370.157,-1093.29 368.387,-1086.52"/>
</g>
<!-- Node15 -->
<g id="node15" class="node"><title>Node15</title>
<g id="a_node15"><a xlink:href="class_ogre_1_1_g_l_e_s2_default_hardware_index_buffer.html" target="_top" xlink:title="Specialisation of HardwareIndexBuffer for emulation. ">
<polygon fill="none" stroke="black" points="437,-989 437,-1019 586,-1019 586,-989 437,-989"/>
<text text-anchor="start" x="445" y="-1007" font-family="Helvetica,sans-Serif" font-size="10.00">Ogre::GLES2DefaultHardware</text>
<text text-anchor="middle" x="511.5" y="-996" font-family="Helvetica,sans-Serif" font-size="10.00">IndexBuffer</text>
</a>
</g>
</g>
<!-- Node8&#45;&gt;Node15 -->
<g id="edge14" class="edge"><title>Node8&#45;&gt;Node15</title>
<path fill="none" stroke="midnightblue" d="M342.608,-1085.79C363.42,-1069.28 397.821,-1043.9 431,-1028 437.891,-1024.7 445.336,-1021.73 452.81,-1019.11"/>
<polygon fill="midnightblue" stroke="midnightblue" points="340.155,-1083.28 334.564,-1092.28 344.547,-1088.73 340.155,-1083.28"/>
</g>
<!-- Node16 -->
<g id="node16" class="node"><title>Node16</title>
<g id="a_node16"><a xlink:href="class_ogre_1_1_g_l_hardware_index_buffer.html" target="_top" xlink:title="Ogre::GLHardwareIndexBuffer">
<polygon fill="none" stroke="black" points="437,-950.5 437,-969.5 586,-969.5 586,-950.5 437,-950.5"/>
<text text-anchor="middle" x="511.5" y="-957.5" font-family="Helvetica,sans-Serif" font-size="10.00">Ogre::GLHardwareIndexBuffer</text>
</a>
</g>
</g>
<!-- Node8&#45;&gt;Node16 -->
<g id="edge15" class="edge"><title>Node8&#45;&gt;Node16</title>
<path fill="none" stroke="midnightblue" d="M333.867,-1083.62C350.966,-1056.37 386.803,-1005.64 431,-979 437.442,-975.118 444.623,-972.028 451.963,-969.57"/>
<polygon fill="midnightblue" stroke="midnightblue" points="330.852,-1081.84 328.617,-1092.2 336.823,-1085.49 330.852,-1081.84"/>
</g>
<!-- Node18 -->
<g id="node18" class="node"><title>Node18</title>
<g id="a_node18"><a xlink:href="class_ogre_1_1_d3_d11_hardware_pixel_buffer.html" target="_top" xlink:title="Ogre::D3D11HardwarePixel\lBuffer">
<polygon fill="none" stroke="black" points="442.5,-901 442.5,-931 580.5,-931 580.5,-901 442.5,-901"/>
<text text-anchor="start" x="450.5" y="-919" font-family="Helvetica,sans-Serif" font-size="10.00">Ogre::D3D11HardwarePixel</text>
<text text-anchor="middle" x="511.5" y="-908" font-family="Helvetica,sans-Serif" font-size="10.00">Buffer</text>
</a>
</g>
</g>
<!-- Node17&#45;&gt;Node18 -->
<g id="edge17" class="edge"><title>Node17&#45;&gt;Node18</title>
<path fill="none" stroke="midnightblue" d="M356.41,-863.258C377.655,-871.546 405.808,-882.266 431,-891 440.706,-894.365 451.143,-897.787 461.159,-900.975"/>
<polygon fill="midnightblue" stroke="midnightblue" points="357.463,-859.912 346.875,-859.521 354.909,-866.429 357.463,-859.912"/>
</g>
<!-- Node19 -->
<g id="node19" class="node"><title>Node19</title>
<g id="a_node19"><a xlink:href="class_ogre_1_1_d3_d9_hardware_pixel_buffer.html" target="_top" xlink:title="Ogre::D3D9HardwarePixelBuffer">
<polygon fill="none" stroke="black" points="432,-862.5 432,-881.5 591,-881.5 591,-862.5 432,-862.5"/>
<text text-anchor="middle" x="511.5" y="-869.5" font-family="Helvetica,sans-Serif" font-size="10.00">Ogre::D3D9HardwarePixelBuffer</text>
</a>
</g>
</g>
<!-- Node17&#45;&gt;Node19 -->
<g id="edge18" class="edge"><title>Node17&#45;&gt;Node19</title>
<path fill="none" stroke="midnightblue" d="M399.276,-858.95C410.006,-860.209 421.051,-861.505 431.825,-862.769"/>
<polygon fill="midnightblue" stroke="midnightblue" points="399.445,-855.446 389.105,-857.756 398.629,-862.398 399.445,-855.446"/>
</g>
<!-- Node20 -->
<g id="node20" class="node"><title>Node20</title>
<g id="a_node20"><a xlink:href="class_ogre_1_1_g_l3_plus_hardware_pixel_buffer.html" target="_top" xlink:title="Ogre::GL3PlusHardwarePixel\lBuffer">
<polygon fill="none" stroke="black" points="439,-813 439,-843 584,-843 584,-813 439,-813"/>
<text text-anchor="start" x="447" y="-831" font-family="Helvetica,sans-Serif" font-size="10.00">Ogre::GL3PlusHardwarePixel</text>
<text text-anchor="middle" x="511.5" y="-820" font-family="Helvetica,sans-Serif" font-size="10.00">Buffer</text>
</a>
</g>
</g>
<!-- Node17&#45;&gt;Node20 -->
<g id="edge19" class="edge"><title>Node17&#45;&gt;Node20</title>
<path fill="none" stroke="midnightblue" d="M399.066,-841.075C412.238,-839.529 425.893,-837.927 438.94,-836.396"/>
<polygon fill="midnightblue" stroke="midnightblue" points="398.629,-837.602 389.105,-842.244 399.445,-844.554 398.629,-837.602"/>
</g>
<!-- Node23 -->
<g id="node23" class="node"><title>Node23</title>
<g id="a_node23"><a xlink:href="class_ogre_1_1_g_l_e_s2_hardware_pixel_buffer.html" target="_top" xlink:title="Ogre::GLES2HardwarePixel\lBuffer">
<polygon fill="none" stroke="black" points="442,-764 442,-794 581,-794 581,-764 442,-764"/>
<text text-anchor="start" x="450" y="-782" font-family="Helvetica,sans-Serif" font-size="10.00">Ogre::GLES2HardwarePixel</text>
<text text-anchor="middle" x="511.5" y="-771" font-family="Helvetica,sans-Serif" font-size="10.00">Buffer</text>
</a>
</g>
</g>
<!-- Node17&#45;&gt;Node23 -->
<g id="edge22" class="edge"><title>Node17&#45;&gt;Node23</title>
<path fill="none" stroke="midnightblue" d="M352.255,-836.157C373.77,-826.251 403.866,-812.961 431,-803 439.527,-799.87 448.671,-796.827 457.613,-794.018"/>
<polygon fill="midnightblue" stroke="midnightblue" points="350.612,-833.061 343.015,-840.446 353.56,-839.41 350.612,-833.061"/>
</g>
<!-- Node26 -->
<g id="node26" class="node"><title>Node26</title>
<g id="a_node26"><a xlink:href="class_ogre_1_1_g_l_hardware_pixel_buffer.html" target="_top" xlink:title="Ogre::GLHardwarePixelBuffer">
<polygon fill="none" stroke="black" points="438.5,-725.5 438.5,-744.5 584.5,-744.5 584.5,-725.5 438.5,-725.5"/>
<text text-anchor="middle" x="511.5" y="-732.5" font-family="Helvetica,sans-Serif" font-size="10.00">Ogre::GLHardwarePixelBuffer</text>
</a>
</g>
</g>
<!-- Node17&#45;&gt;Node26 -->
<g id="edge25" class="edge"><title>Node17&#45;&gt;Node26</title>
<path fill="none" stroke="midnightblue" d="M337.55,-832.609C356.712,-810.865 392.51,-774.069 431,-754 438.424,-750.129 446.649,-747.033 454.911,-744.561"/>
<polygon fill="midnightblue" stroke="midnightblue" points="334.713,-830.54 330.832,-840.398 340.014,-835.112 334.713,-830.54"/>
</g>
<!-- Node21 -->
<g id="node21" class="node"><title>Node21</title>
<g id="a_node21"><a xlink:href="class_ogre_1_1_g_l3_plus_render_buffer.html" target="_top" xlink:title="Renderbuffer surface. ">
<polygon fill="none" stroke="black" points="628.5,-867.5 628.5,-886.5 767.5,-886.5 767.5,-867.5 628.5,-867.5"/>
<text text-anchor="middle" x="698" y="-874.5" font-family="Helvetica,sans-Serif" font-size="10.00">Ogre::GL3PlusRenderBuffer</text>
</a>
</g>
</g>
<!-- Node20&#45;&gt;Node21 -->
<g id="edge20" class="edge"><title>Node20&#45;&gt;Node21</title>
<path fill="none" stroke="midnightblue" d="M579.139,-845.698C606.826,-853.051 637.856,-861.292 661.124,-867.472"/>
<polygon fill="midnightblue" stroke="midnightblue" points="579.673,-842.219 569.11,-843.035 577.876,-848.984 579.673,-842.219"/>
</g>
<!-- Node22 -->
<g id="node22" class="node"><title>Node22</title>
<g id="a_node22"><a xlink:href="class_ogre_1_1_g_l3_plus_texture_buffer.html" target="_top" xlink:title="Texture surface. ">
<polygon fill="none" stroke="black" points="628,-829.5 628,-848.5 768,-848.5 768,-829.5 628,-829.5"/>
<text text-anchor="middle" x="698" y="-836.5" font-family="Helvetica,sans-Serif" font-size="10.00">Ogre::GL3PlusTextureBuffer</text>
</a>
</g>
</g>
<!-- Node20&#45;&gt;Node22 -->
<g id="edge21" class="edge"><title>Node20&#45;&gt;Node22</title>
<path fill="none" stroke="midnightblue" d="M594.307,-832.877C605.51,-833.545 616.921,-834.226 627.867,-834.878"/>
<polygon fill="midnightblue" stroke="midnightblue" points="594.287,-829.37 584.097,-832.269 593.871,-836.358 594.287,-829.37"/>
</g>
<!-- Node24 -->
<g id="node24" class="node"><title>Node24</title>
<g id="a_node24"><a xlink:href="class_ogre_1_1_g_l_e_s2_render_buffer.html" target="_top" xlink:title="Renderbuffer surface. ">
<polygon fill="none" stroke="black" points="631.5,-791.5 631.5,-810.5 764.5,-810.5 764.5,-791.5 631.5,-791.5"/>
<text text-anchor="middle" x="698" y="-798.5" font-family="Helvetica,sans-Serif" font-size="10.00">Ogre::GLES2RenderBuffer</text>
</a>
</g>
</g>
<!-- Node23&#45;&gt;Node24 -->
<g id="edge23" class="edge"><title>Node23&#45;&gt;Node24</title>
<path fill="none" stroke="midnightblue" d="M591.303,-788.397C604.635,-789.986 618.351,-791.622 631.303,-793.166"/>
<polygon fill="midnightblue" stroke="midnightblue" points="591.545,-784.901 581.201,-787.192 590.716,-791.851 591.545,-784.901"/>
</g>
<!-- Node25 -->
<g id="node25" class="node"><title>Node25</title>
<g id="a_node25"><a xlink:href="class_ogre_1_1_g_l_e_s2_texture_buffer.html" target="_top" xlink:title="Texture surface. ">
<polygon fill="none" stroke="black" points="631,-753.5 631,-772.5 765,-772.5 765,-753.5 631,-753.5"/>
<text text-anchor="middle" x="698" y="-760.5" font-family="Helvetica,sans-Serif" font-size="10.00">Ogre::GLES2TextureBuffer</text>
</a>
</g>
</g>
<!-- Node23&#45;&gt;Node25 -->
<g id="edge24" class="edge"><title>Node23&#45;&gt;Node25</title>
<path fill="none" stroke="midnightblue" d="M591.239,-772.172C604.487,-771.023 618.115,-769.841 630.998,-768.724"/>
<polygon fill="midnightblue" stroke="midnightblue" points="590.861,-768.691 581.201,-773.042 591.466,-775.665 590.861,-768.691"/>
</g>
<!-- Node27 -->
<g id="node27" class="node"><title>Node27</title>
<g id="a_node27"><a xlink:href="class_ogre_1_1_g_l_render_buffer.html" target="_top" xlink:title="Renderbuffer surface. ">
<polygon fill="none" stroke="black" points="641,-715.5 641,-734.5 755,-734.5 755,-715.5 641,-715.5"/>
<text text-anchor="middle" x="698" y="-722.5" font-family="Helvetica,sans-Serif" font-size="10.00">Ogre::GLRenderBuffer</text>
</a>
</g>
</g>
<!-- Node26&#45;&gt;Node27 -->
<g id="edge26" class="edge"><title>Node26&#45;&gt;Node27</title>
<path fill="none" stroke="midnightblue" d="M594.798,-730.539C610.391,-729.694 626.367,-728.828 640.917,-728.04"/>
<polygon fill="midnightblue" stroke="midnightblue" points="594.421,-727.055 584.625,-731.091 594.8,-734.044 594.421,-727.055"/>
</g>
<!-- Node28 -->
<g id="node28" class="node"><title>Node28</title>
<g id="a_node28"><a xlink:href="class_ogre_1_1_g_l_texture_buffer.html" target="_top" xlink:title="Texture surface. ">
<polygon fill="none" stroke="black" points="640,-677.5 640,-696.5 756,-696.5 756,-677.5 640,-677.5"/>
<text text-anchor="middle" x="698" y="-684.5" font-family="Helvetica,sans-Serif" font-size="10.00">Ogre::GLTextureBuffer</text>
</a>
</g>
</g>
<!-- Node26&#45;&gt;Node28 -->
<g id="edge27" class="edge"><title>Node26&#45;&gt;Node28</title>
<path fill="none" stroke="midnightblue" d="M560.661,-723C571.007,-720.39 581.873,-717.624 592,-715 615.194,-708.99 641.217,-702.052 661.553,-696.586"/>
<polygon fill="midnightblue" stroke="midnightblue" points="559.786,-719.611 550.942,-725.445 561.494,-726.4 559.786,-719.611"/>
</g>
<!-- Node30 -->
<g id="node30" class="node"><title>Node30</title>
<g id="a_node30"><a xlink:href="class_ogre_1_1_d3_d11_hardware_uniform_buffer.html" target="_top" xlink:title="Specialisation of HardwareBuffer for D3D11. ">
<polygon fill="none" stroke="black" points="436,-676 436,-706 587,-706 587,-676 436,-676"/>
<text text-anchor="start" x="444" y="-694" font-family="Helvetica,sans-Serif" font-size="10.00">Ogre::D3D11HardwareUniform</text>
<text text-anchor="middle" x="511.5" y="-683" font-family="Helvetica,sans-Serif" font-size="10.00">Buffer</text>
</a>
</g>
</g>
<!-- Node29&#45;&gt;Node30 -->
<g id="edge29" class="edge"><title>Node29&#45;&gt;Node30</title>
<path fill="none" stroke="midnightblue" d="M337.704,-585.34C357.028,-607.1 392.999,-644.202 431,-666 437.652,-669.815 444.957,-673.123 452.359,-675.968"/>
<polygon fill="midnightblue" stroke="midnightblue" points="340.131,-582.798 330.923,-577.557 334.854,-587.396 340.131,-582.798"/>
</g>
<!-- Node31 -->
<g id="node31" class="node"><title>Node31</title>
<g id="a_node31"><a xlink:href="class_ogre_1_1_default_hardware_uniform_buffer.html" target="_top" xlink:title="Specialisation of HardwareUniformBuffer for emulation. ">
<polygon fill="none" stroke="black" points="435.5,-627 435.5,-657 587.5,-657 587.5,-627 435.5,-627"/>
<text text-anchor="start" x="443.5" y="-645" font-family="Helvetica,sans-Serif" font-size="10.00">Ogre::DefaultHardwareUniform</text>
<text text-anchor="middle" x="511.5" y="-634" font-family="Helvetica,sans-Serif" font-size="10.00">Buffer</text>
</a>
</g>
</g>
<!-- Node29&#45;&gt;Node31 -->
<g id="edge30" class="edge"><title>Node29&#45;&gt;Node31</title>
<path fill="none" stroke="midnightblue" d="M351.438,-582.046C372.987,-592.408 403.483,-606.476 431,-617 440.054,-620.463 449.815,-623.826 459.291,-626.903"/>
<polygon fill="midnightblue" stroke="midnightblue" points="352.735,-578.786 342.21,-577.572 349.681,-585.084 352.735,-578.786"/>
</g>
<!-- Node32 -->
<g id="node32" class="node"><title>Node32</title>
<g id="a_node32"><a xlink:href="class_ogre_1_1_g_l3_plus_default_hardware_uniform_buffer.html" target="_top" xlink:title="Specialisation of HardwareUniformBuffer for emulation. ">
<polygon fill="none" stroke="black" points="434,-578 434,-608 589,-608 589,-578 434,-578"/>
<text text-anchor="start" x="442" y="-596" font-family="Helvetica,sans-Serif" font-size="10.00">Ogre::GL3PlusDefaultHardware</text>
<text text-anchor="middle" x="511.5" y="-585" font-family="Helvetica,sans-Serif" font-size="10.00">UniformBuffer</text>
</a>
</g>
</g>
<!-- Node29&#45;&gt;Node32 -->
<g id="edge31" class="edge"><title>Node29&#45;&gt;Node32</title>
<path fill="none" stroke="midnightblue" d="M404.528,-578.87C414.307,-580.174 424.267,-581.502 433.971,-582.796"/>
<polygon fill="midnightblue" stroke="midnightblue" points="404.795,-575.375 394.421,-577.523 403.87,-582.314 404.795,-575.375"/>
</g>
<!-- Node33 -->
<g id="node33" class="node"><title>Node33</title>
<g id="a_node33"><a xlink:href="class_ogre_1_1_g_l3_plus_hardware_shader_storage_buffer.html" target="_top" xlink:title="Specialisation of HardwareUniformBuffer for the OpenGL Shader Storage Buffer. ">
<polygon fill="none" stroke="black" points="434.5,-529 434.5,-559 588.5,-559 588.5,-529 434.5,-529"/>
<text text-anchor="start" x="442.5" y="-547" font-family="Helvetica,sans-Serif" font-size="10.00">Ogre::GL3PlusHardwareShader</text>
<text text-anchor="middle" x="511.5" y="-536" font-family="Helvetica,sans-Serif" font-size="10.00">StorageBuffer</text>
</a>
</g>
</g>
<!-- Node29&#45;&gt;Node33 -->
<g id="edge32" class="edge"><title>Node29&#45;&gt;Node33</title>
<path fill="none" stroke="midnightblue" d="M405.213,-557.477C414.873,-556.24 424.699,-554.982 434.272,-553.757"/>
<polygon fill="midnightblue" stroke="midnightblue" points="404.699,-554.014 395.224,-558.755 405.588,-560.957 404.699,-554.014"/>
</g>
<!-- Node34 -->
<g id="node34" class="node"><title>Node34</title>
<g id="a_node34"><a xlink:href="class_ogre_1_1_g_l3_plus_hardware_uniform_buffer.html" target="_top" xlink:title="Specialisation of HardwareUniformBuffer for OpenGL. ">
<polygon fill="none" stroke="black" points="432.5,-480 432.5,-510 590.5,-510 590.5,-480 432.5,-480"/>
<text text-anchor="start" x="440.5" y="-498" font-family="Helvetica,sans-Serif" font-size="10.00">Ogre::GL3PlusHardwareUniform</text>
<text text-anchor="middle" x="511.5" y="-487" font-family="Helvetica,sans-Serif" font-size="10.00">Buffer</text>
</a>
</g>
</g>
<!-- Node29&#45;&gt;Node34 -->
<g id="edge33" class="edge"><title>Node29&#45;&gt;Node34</title>
<path fill="none" stroke="midnightblue" d="M351.403,-553.861C372.934,-543.452 403.423,-529.366 431,-519 439.367,-515.855 448.344,-512.825 457.146,-510.04"/>
<polygon fill="midnightblue" stroke="midnightblue" points="349.637,-550.829 342.183,-558.359 352.706,-557.12 349.637,-550.829"/>
</g>
<!-- Node35 -->
<g id="node35" class="node"><title>Node35</title>
<g id="a_node35"><a xlink:href="class_ogre_1_1_g_l_e_s2_default_hardware_uniform_buffer.html" target="_top" xlink:title="Specialisation of HardwareUniformBuffer for emulation. ">
<polygon fill="none" stroke="black" points="437,-431 437,-461 586,-461 586,-431 437,-431"/>
<text text-anchor="start" x="445" y="-449" font-family="Helvetica,sans-Serif" font-size="10.00">Ogre::GLES2DefaultHardware</text>
<text text-anchor="middle" x="511.5" y="-438" font-family="Helvetica,sans-Serif" font-size="10.00">UniformBuffer</text>
</a>
</g>
</g>
<!-- Node29&#45;&gt;Node35 -->
<g id="edge34" class="edge"><title>Node29&#45;&gt;Node35</title>
<path fill="none" stroke="midnightblue" d="M337.665,-550.591C356.948,-528.758 392.874,-491.579 431,-470 437.023,-466.591 443.582,-463.617 450.264,-461.034"/>
<polygon fill="midnightblue" stroke="midnightblue" points="334.801,-548.551 330.9,-558.402 340.093,-553.134 334.801,-548.551"/>
</g>
<!-- Node36 -->
<g id="node36" class="node"><title>Node36</title>
<g id="a_node36"><a xlink:href="class_ogre_1_1_g_l_e_s2_hardware_uniform_buffer.html" target="_top" xlink:title="Specialisation of HardwareUniformBuffer for OpenGL. ">
<polygon fill="none" stroke="black" points="435.5,-382 435.5,-412 587.5,-412 587.5,-382 435.5,-382"/>
<text text-anchor="start" x="443.5" y="-400" font-family="Helvetica,sans-Serif" font-size="10.00">Ogre::GLES2HardwareUniform</text>
<text text-anchor="middle" x="511.5" y="-389" font-family="Helvetica,sans-Serif" font-size="10.00">Buffer</text>
</a>
</g>
</g>
<!-- Node29&#45;&gt;Node36 -->
<g id="edge35" class="edge"><title>Node29&#45;&gt;Node36</title>
<path fill="none" stroke="midnightblue" d="M331.799,-549.105C347.349,-517.776 382.669,-455.153 431,-421 435.827,-417.589 441.148,-414.654 446.679,-412.132"/>
<polygon fill="midnightblue" stroke="midnightblue" points="328.487,-547.916 327.293,-558.443 334.791,-550.958 328.487,-547.916"/>
</g>
<!-- Node38 -->
<g id="node38" class="node"><title>Node38</title>
<g id="a_node38"><a xlink:href="class_ogre_1_1_d3_d11_hardware_vertex_buffer.html" target="_top" xlink:title="Specialisation of HardwareVertexBuffer for D3D11. ">
<polygon fill="none" stroke="black" points="439,-333 439,-363 584,-363 584,-333 439,-333"/>
<text text-anchor="start" x="447" y="-351" font-family="Helvetica,sans-Serif" font-size="10.00">Ogre::D3D11HardwareVertex</text>
<text text-anchor="middle" x="511.5" y="-340" font-family="Helvetica,sans-Serif" font-size="10.00">Buffer</text>
</a>
</g>
</g>
<!-- Node37&#45;&gt;Node38 -->
<g id="edge37" class="edge"><title>Node37&#45;&gt;Node38</title>
<path fill="none" stroke="midnightblue" d="M334.376,-219.194C351.924,-245.798 388.093,-295.168 431,-323 436.948,-326.858 443.531,-330.155 450.289,-332.965"/>
<polygon fill="midnightblue" stroke="midnightblue" points="337.135,-217.013 328.776,-210.504 331.251,-220.806 337.135,-217.013"/>
</g>
<!-- Node39 -->
<g id="node39" class="node"><title>Node39</title>
<g id="a_node39"><a xlink:href="class_ogre_1_1_d3_d9_hardware_vertex_buffer.html" target="_top" xlink:title="Specialisation of HardwareVertexBuffer for D3D9. ">
<polygon fill="none" stroke="black" points="441.5,-284 441.5,-314 581.5,-314 581.5,-284 441.5,-284"/>
<text text-anchor="start" x="449.5" y="-302" font-family="Helvetica,sans-Serif" font-size="10.00">Ogre::D3D9HardwareVertex</text>
<text text-anchor="middle" x="511.5" y="-291" font-family="Helvetica,sans-Serif" font-size="10.00">Buffer</text>
</a>
</g>
</g>
<!-- Node37&#45;&gt;Node39 -->
<g id="edge38" class="edge"><title>Node37&#45;&gt;Node39</title>
<path fill="none" stroke="midnightblue" d="M342.683,-216.893C363.555,-233.106 398.005,-258.081 431,-274 438.688,-277.709 447.055,-281.037 455.38,-283.962"/>
<polygon fill="midnightblue" stroke="midnightblue" points="344.633,-213.973 334.612,-210.532 340.3,-219.471 344.633,-213.973"/>
</g>
<!-- Node40 -->
<g id="node40" class="node"><title>Node40</title>
<g id="a_node40"><a xlink:href="class_ogre_1_1_default_hardware_vertex_buffer.html" target="_top" xlink:title="Specialisation of HardwareVertexBuffer for emulation. ">
<polygon fill="none" stroke="black" points="438.5,-235 438.5,-265 584.5,-265 584.5,-235 438.5,-235"/>
<text text-anchor="start" x="446.5" y="-253" font-family="Helvetica,sans-Serif" font-size="10.00">Ogre::DefaultHardwareVertex</text>
<text text-anchor="middle" x="511.5" y="-242" font-family="Helvetica,sans-Serif" font-size="10.00">Buffer</text>
</a>
</g>
</g>
<!-- Node37&#45;&gt;Node40 -->
<g id="edge39" class="edge"><title>Node37&#45;&gt;Node40</title>
<path fill="none" stroke="midnightblue" d="M369.308,-213.102C394.587,-219.708 426.114,-227.947 452.961,-234.963"/>
<polygon fill="midnightblue" stroke="midnightblue" points="370.157,-209.706 359.597,-210.564 368.387,-216.479 370.157,-209.706"/>
</g>
<!-- Node41 -->
<g id="node41" class="node"><title>Node41</title>
<g id="a_node41"><a xlink:href="class_ogre_1_1_g_l3_plus_default_hardware_vertex_buffer.html" target="_top" xlink:title="Specialisation of HardwareVertexBuffer for emulation. ">
<polygon fill="none" stroke="black" points="434,-186 434,-216 589,-216 589,-186 434,-186"/>
<text text-anchor="start" x="442" y="-204" font-family="Helvetica,sans-Serif" font-size="10.00">Ogre::GL3PlusDefaultHardware</text>
<text text-anchor="middle" x="511.5" y="-193" font-family="Helvetica,sans-Serif" font-size="10.00">VertexBuffer</text>
</a>
</g>
</g>
<!-- Node37&#45;&gt;Node41 -->
<g id="edge40" class="edge"><title>Node37&#45;&gt;Node41</title>
<path fill="none" stroke="midnightblue" d="M402.32,-201C412.722,-201 423.366,-201 433.724,-201"/>
<polygon fill="midnightblue" stroke="midnightblue" points="402.019,-197.5 392.019,-201 402.019,-204.5 402.019,-197.5"/>
</g>
<!-- Node42 -->
<g id="node42" class="node"><title>Node42</title>
<g id="a_node42"><a xlink:href="class_ogre_1_1_g_l3_plus_hardware_vertex_buffer.html" target="_top" xlink:title="Specialisation of HardwareVertexBuffer for OpenGL. ">
<polygon fill="none" stroke="black" points="435.5,-137 435.5,-167 587.5,-167 587.5,-137 435.5,-137"/>
<text text-anchor="start" x="443.5" y="-155" font-family="Helvetica,sans-Serif" font-size="10.00">Ogre::GL3PlusHardwareVertex</text>
<text text-anchor="middle" x="511.5" y="-144" font-family="Helvetica,sans-Serif" font-size="10.00">Buffer</text>
</a>
</g>
</g>
<!-- Node37&#45;&gt;Node42 -->
<g id="edge41" class="edge"><title>Node37&#45;&gt;Node42</title>
<path fill="none" stroke="midnightblue" d="M369.308,-188.898C394.587,-182.292 426.114,-174.053 452.961,-167.037"/>
<polygon fill="midnightblue" stroke="midnightblue" points="368.387,-185.521 359.597,-191.436 370.157,-192.294 368.387,-185.521"/>
</g>
<!-- Node43 -->
<g id="node43" class="node"><title>Node43</title>
<g id="a_node43"><a xlink:href="class_ogre_1_1_g_l_default_hardware_vertex_buffer.html" target="_top" xlink:title="Specialisation of HardwareVertexBuffer for emulation. ">
<polygon fill="none" stroke="black" points="432.5,-88 432.5,-118 590.5,-118 590.5,-88 432.5,-88"/>
<text text-anchor="start" x="440.5" y="-106" font-family="Helvetica,sans-Serif" font-size="10.00">Ogre::GLDefaultHardwareVertex</text>
<text text-anchor="middle" x="511.5" y="-95" font-family="Helvetica,sans-Serif" font-size="10.00">Buffer</text>
</a>
</g>
</g>
<!-- Node37&#45;&gt;Node43 -->
<g id="edge42" class="edge"><title>Node37&#45;&gt;Node43</title>
<path fill="none" stroke="midnightblue" d="M342.608,-184.794C363.42,-168.282 397.821,-142.902 431,-127 437.891,-123.697 445.336,-120.734 452.81,-118.11"/>
<polygon fill="midnightblue" stroke="midnightblue" points="340.155,-182.276 334.564,-191.275 344.547,-187.727 340.155,-182.276"/>
</g>
<!-- Node44 -->
<g id="node44" class="node"><title>Node44</title>
<g id="a_node44"><a xlink:href="class_ogre_1_1_g_l_e_s2_default_hardware_vertex_buffer.html" target="_top" xlink:title="Specialisation of HardwareVertexBuffer for emulation. ">
<polygon fill="none" stroke="black" points="437,-39 437,-69 586,-69 586,-39 437,-39"/>
<text text-anchor="start" x="445" y="-57" font-family="Helvetica,sans-Serif" font-size="10.00">Ogre::GLES2DefaultHardware</text>
<text text-anchor="middle" x="511.5" y="-46" font-family="Helvetica,sans-Serif" font-size="10.00">VertexBuffer</text>
</a>
</g>
</g>
<!-- Node37&#45;&gt;Node44 -->
<g id="edge43" class="edge"><title>Node37&#45;&gt;Node44</title>
<path fill="none" stroke="midnightblue" d="M334.298,-182.59C351.747,-155.682 387.792,-105.799 431,-78 436.335,-74.5676 442.184,-71.6062 448.214,-69.0551"/>
<polygon fill="midnightblue" stroke="midnightblue" points="331.125,-181.059 328.732,-191.38 337.039,-184.804 331.125,-181.059"/>
</g>
<!-- Node45 -->
<g id="node45" class="node"><title>Node45</title>
<g id="a_node45"><a xlink:href="class_ogre_1_1_g_l_hardware_vertex_buffer.html" target="_top" xlink:title="Specialisation of HardwareVertexBuffer for OpenGL. ">
<polygon fill="none" stroke="black" points="435,-0.5 435,-19.5 588,-19.5 588,-0.5 435,-0.5"/>
<text text-anchor="middle" x="511.5" y="-7.5" font-family="Helvetica,sans-Serif" font-size="10.00">Ogre::GLHardwareVertexBuffer</text>
</a>
</g>
</g>
<!-- Node37&#45;&gt;Node45 -->
<g id="edge44" class="edge"><title>Node37&#45;&gt;Node45</title>
<path fill="none" stroke="midnightblue" d="M329.536,-181.595C342.704,-145.583 375.958,-68.4905 431,-29 436.419,-25.1119 442.528,-22.0111 448.891,-19.5395"/>
<polygon fill="midnightblue" stroke="midnightblue" points="326.115,-180.77 326.092,-191.365 332.717,-183.097 326.115,-180.77"/>
</g>
</g>
</svg>
