<?xml version="1.0" encoding="UTF-8" standalone="no"?>
<!DOCTYPE svg PUBLIC "-//W3C//DTD SVG 1.1//EN"
 "http://www.w3.org/Graphics/SVG/1.1/DTD/svg11.dtd">
<!-- Generated by graphviz version 2.38.0 (20140413.2041)
 -->
<!-- Title: Ogre::GLRTTManager Pages: 1 -->
<svg width="435pt" height="140pt"
 viewBox="0.00 0.00 435.00 140.00" xmlns="http://www.w3.org/2000/svg" xmlns:xlink="http://www.w3.org/1999/xlink">
<g id="graph0" class="graph" transform="scale(1 1) rotate(0) translate(4 136)">
<title>Ogre::GLRTTManager</title>
<!-- Node1 -->
<g id="node1" class="node"><title>Node1</title>
<polygon fill="#bfbfbf" stroke="black" points="168,-56.5 168,-75.5 281,-75.5 281,-56.5 168,-56.5"/>
<text text-anchor="middle" x="224.5" y="-63.5" font-family="Helvetica,sans-Serif" font-size="10.00">Ogre::GLRTTManager</text>
</g>
<!-- Node3 -->
<g id="node3" class="node"><title>Node3</title>
<g id="a_node3"><a xlink:href="class_ogre_1_1_g_l_copying_r_t_t_manager.html" target="_top" xlink:title="Simple, copying manager/factory for RenderTextures. ">
<polygon fill="none" stroke="black" points="0,-0.5 0,-19.5 149,-19.5 149,-0.5 0,-0.5"/>
<text text-anchor="middle" x="74.5" y="-7.5" font-family="Helvetica,sans-Serif" font-size="10.00">Ogre::GLCopyingRTTManager</text>
</a>
</g>
</g>
<!-- Node1&#45;&gt;Node3 -->
<g id="edge2" class="edge"><title>Node1&#45;&gt;Node3</title>
<path fill="none" stroke="midnightblue" d="M191.275,-53.0392C163.052,-42.8786 123.238,-28.5457 98.1567,-19.5164"/>
<polygon fill="midnightblue" stroke="midnightblue" points="190.138,-56.3494 200.732,-56.4435 192.509,-49.7632 190.138,-56.3494"/>
</g>
<!-- Node4 -->
<g id="node4" class="node"><title>Node4</title>
<g id="a_node4"><a xlink:href="class_ogre_1_1_g_l_f_b_o_manager.html" target="_top" xlink:title="Factory for GL Frame Buffer Objects, and related things. ">
<polygon fill="none" stroke="black" points="167.5,-0.5 167.5,-19.5 281.5,-19.5 281.5,-0.5 167.5,-0.5"/>
<text text-anchor="middle" x="224.5" y="-7.5" font-family="Helvetica,sans-Serif" font-size="10.00">Ogre::GLFBOManager</text>
</a>
</g>
</g>
<!-- Node1&#45;&gt;Node4 -->
<g id="edge3" class="edge"><title>Node1&#45;&gt;Node4</title>
<path fill="none" stroke="midnightblue" d="M224.5,-45.8045C224.5,-36.9102 224.5,-26.7798 224.5,-19.7511"/>
<polygon fill="midnightblue" stroke="midnightblue" points="221,-46.083 224.5,-56.083 228,-46.083 221,-46.083"/>
</g>
<!-- Node5 -->
<g id="node5" class="node"><title>Node5</title>
<g id="a_node5"><a xlink:href="class_ogre_1_1_g_l_p_b_r_t_t_manager.html" target="_top" xlink:title="Manager for rendertextures and PBuffers (offscreen rendering contexts) ">
<polygon fill="none" stroke="black" points="300,-0.5 300,-19.5 427,-19.5 427,-0.5 300,-0.5"/>
<text text-anchor="middle" x="363.5" y="-7.5" font-family="Helvetica,sans-Serif" font-size="10.00">Ogre::GLPBRTTManager</text>
</a>
</g>
</g>
<!-- Node1&#45;&gt;Node5 -->
<g id="edge4" class="edge"><title>Node1&#45;&gt;Node5</title>
<path fill="none" stroke="midnightblue" d="M255.976,-52.772C282.085,-42.6287 318.539,-28.4669 341.578,-19.5164"/>
<polygon fill="midnightblue" stroke="midnightblue" points="254.579,-49.5598 246.525,-56.4435 257.114,-56.0847 254.579,-49.5598"/>
</g>
<!-- Node2 -->
<g id="node2" class="node"><title>Node2</title>
<g id="a_node2"><a xlink:href="class_ogre_1_1_singleton.html" target="_top" xlink:title="Ogre::Singleton\&lt; GLRTTManager \&gt;">
<polygon fill="none" stroke="black" points="138.5,-112.5 138.5,-131.5 310.5,-131.5 310.5,-112.5 138.5,-112.5"/>
<text text-anchor="middle" x="224.5" y="-119.5" font-family="Helvetica,sans-Serif" font-size="10.00">Ogre::Singleton&lt; GLRTTManager &gt;</text>
</a>
</g>
</g>
<!-- Node2&#45;&gt;Node1 -->
<g id="edge1" class="edge"><title>Node2&#45;&gt;Node1</title>
<path fill="none" stroke="midnightblue" d="M224.5,-101.805C224.5,-92.9102 224.5,-82.7798 224.5,-75.7511"/>
<polygon fill="midnightblue" stroke="midnightblue" points="221,-102.083 224.5,-112.083 228,-102.083 221,-102.083"/>
</g>
</g>
</svg>
