<?xml version="1.0" encoding="UTF-8" standalone="no"?>
<!DOCTYPE svg PUBLIC "-//W3C//DTD SVG 1.1//EN"
 "http://www.w3.org/Graphics/SVG/1.1/DTD/svg11.dtd">
<!-- Generated by graphviz version 2.38.0 (20140413.2041)
 -->
<!-- Title: Ogre::RenderTarget Pages: 1 -->
<svg width="796pt" height="551pt"
 viewBox="0.00 0.00 796.00 551.00" xmlns="http://www.w3.org/2000/svg" xmlns:xlink="http://www.w3.org/1999/xlink">
<g id="graph0" class="graph" transform="scale(1 1) rotate(0) translate(4 547)">
<title>Ogre::RenderTarget</title>
<!-- Node1 -->
<g id="node1" class="node"><title>Node1</title>
<polygon fill="#bfbfbf" stroke="black" points="123,-234.5 123,-253.5 226,-253.5 226,-234.5 123,-234.5"/>
<text text-anchor="middle" x="174.5" y="-241.5" font-family="Helvetica,sans-Serif" font-size="10.00">Ogre::RenderTarget</text>
</g>
<!-- Node3 -->
<g id="node3" class="node"><title>Node3</title>
<g id="a_node3"><a xlink:href="class_ogre_1_1_multi_render_target.html" target="_top" xlink:title="This class represents a render target that renders to multiple RenderTextures at once. ">
<polygon fill="none" stroke="black" points="262,-416.5 262,-435.5 386,-435.5 386,-416.5 262,-416.5"/>
<text text-anchor="middle" x="324" y="-423.5" font-family="Helvetica,sans-Serif" font-size="10.00">Ogre::MultiRenderTarget</text>
</a>
</g>
</g>
<!-- Node1&#45;&gt;Node3 -->
<g id="edge2" class="edge"><title>Node1&#45;&gt;Node3</title>
<path fill="none" stroke="midnightblue" d="M189.992,-261.882C220.663,-299.726 291.269,-386.847 315.031,-416.167"/>
<polygon fill="midnightblue" stroke="midnightblue" points="192.446,-259.35 183.43,-253.785 187.007,-263.758 192.446,-259.35"/>
</g>
<!-- Node9 -->
<g id="node9" class="node"><title>Node9</title>
<g id="a_node9"><a xlink:href="class_ogre_1_1_render_texture.html" target="_top" xlink:title="This class represents a RenderTarget that renders to a Texture. ">
<polygon fill="none" stroke="black" points="270,-234.5 270,-253.5 378,-253.5 378,-234.5 270,-234.5"/>
<text text-anchor="middle" x="324" y="-241.5" font-family="Helvetica,sans-Serif" font-size="10.00">Ogre::RenderTexture</text>
</a>
</g>
</g>
<!-- Node1&#45;&gt;Node9 -->
<g id="edge8" class="edge"><title>Node1&#45;&gt;Node9</title>
<path fill="none" stroke="midnightblue" d="M236.338,-244C247.467,-244 259.002,-244 269.884,-244"/>
<polygon fill="midnightblue" stroke="midnightblue" points="236.261,-240.5 226.261,-244 236.261,-247.5 236.261,-240.5"/>
</g>
<!-- Node20 -->
<g id="node20" class="node"><title>Node20</title>
<g id="a_node20"><a xlink:href="class_ogre_1_1_render_window.html" target="_top" xlink:title="Manages the target rendering window. ">
<polygon fill="none" stroke="black" points="269,-57.5 269,-76.5 379,-76.5 379,-57.5 269,-57.5"/>
<text text-anchor="middle" x="324" y="-64.5" font-family="Helvetica,sans-Serif" font-size="10.00">Ogre::RenderWindow</text>
</a>
</g>
</g>
<!-- Node1&#45;&gt;Node20 -->
<g id="edge19" class="edge"><title>Node1&#45;&gt;Node20</title>
<path fill="none" stroke="midnightblue" d="M189.992,-226.61C220.663,-189.804 291.269,-105.077 315.031,-76.5633"/>
<polygon fill="midnightblue" stroke="midnightblue" points="187.143,-224.561 183.43,-234.484 192.521,-229.042 187.143,-224.561"/>
</g>
<!-- Node2 -->
<g id="node2" class="node"><title>Node2</title>
<g id="a_node2"><a xlink:href="class_ogre_1_1_allocated_object.html" target="_top" xlink:title="Superclass for all objects that wish to use custom memory allocators when their new / delete operator...">
<polygon fill="none" stroke="black" points="0,-234.5 0,-253.5 87,-253.5 87,-234.5 0,-234.5"/>
<text text-anchor="middle" x="43.5" y="-241.5" font-family="Helvetica,sans-Serif" font-size="10.00">RenderSysAlloc</text>
</a>
</g>
</g>
<!-- Node2&#45;&gt;Node1 -->
<g id="edge1" class="edge"><title>Node2&#45;&gt;Node1</title>
<path fill="none" stroke="midnightblue" d="M97.2458,-244C105.713,-244 114.461,-244 122.877,-244"/>
<polygon fill="midnightblue" stroke="midnightblue" points="97.097,-240.5 87.0969,-244 97.0969,-247.5 97.097,-240.5"/>
</g>
<!-- Node4 -->
<g id="node4" class="node"><title>Node4</title>
<g id="a_node4"><a xlink:href="class_ogre_1_1_d3_d11_multi_render_target.html" target="_top" xlink:title="Ogre::D3D11MultiRenderTarget">
<polygon fill="none" stroke="black" points="426.5,-523.5 426.5,-542.5 581.5,-542.5 581.5,-523.5 426.5,-523.5"/>
<text text-anchor="middle" x="504" y="-530.5" font-family="Helvetica,sans-Serif" font-size="10.00">Ogre::D3D11MultiRenderTarget</text>
</a>
</g>
</g>
<!-- Node3&#45;&gt;Node4 -->
<g id="edge3" class="edge"><title>Node3&#45;&gt;Node4</title>
<path fill="none" stroke="midnightblue" d="M339.245,-443.436C356.65,-463.553 388.005,-496.146 422,-514 429.417,-517.895 437.631,-521.001 445.9,-523.475"/>
<polygon fill="midnightblue" stroke="midnightblue" points="341.801,-441.038 332.673,-435.658 336.454,-445.556 341.801,-441.038"/>
</g>
<!-- Node5 -->
<g id="node5" class="node"><title>Node5</title>
<g id="a_node5"><a xlink:href="class_ogre_1_1_d3_d9_multi_render_target.html" target="_top" xlink:title="Ogre::D3D9MultiRenderTarget">
<polygon fill="none" stroke="black" points="429.5,-485.5 429.5,-504.5 578.5,-504.5 578.5,-485.5 429.5,-485.5"/>
<text text-anchor="middle" x="504" y="-492.5" font-family="Helvetica,sans-Serif" font-size="10.00">Ogre::D3D9MultiRenderTarget</text>
</a>
</g>
</g>
<!-- Node3&#45;&gt;Node5 -->
<g id="edge4" class="edge"><title>Node3&#45;&gt;Node5</title>
<path fill="none" stroke="midnightblue" d="M349.264,-440.636C368.439,-451.672 396.182,-466.483 422,-476 432.029,-479.697 443.028,-482.844 453.598,-485.451"/>
<polygon fill="midnightblue" stroke="midnightblue" points="350.984,-437.588 340.585,-435.562 347.451,-443.631 350.984,-437.588"/>
</g>
<!-- Node6 -->
<g id="node6" class="node"><title>Node6</title>
<g id="a_node6"><a xlink:href="class_ogre_1_1_g_l3_plus_f_b_o_multi_render_target.html" target="_top" xlink:title="MultiRenderTarget for OpenGL. ">
<polygon fill="none" stroke="black" points="427,-436 427,-466 581,-466 581,-436 427,-436"/>
<text text-anchor="start" x="435" y="-454" font-family="Helvetica,sans-Serif" font-size="10.00">Ogre::GL3PlusFBOMultiRender</text>
<text text-anchor="middle" x="504" y="-443" font-family="Helvetica,sans-Serif" font-size="10.00">Target</text>
</a>
</g>
</g>
<!-- Node3&#45;&gt;Node6 -->
<g id="edge5" class="edge"><title>Node3&#45;&gt;Node6</title>
<path fill="none" stroke="midnightblue" d="M396.209,-436.001C406.286,-437.417 416.68,-438.876 426.846,-440.304"/>
<polygon fill="midnightblue" stroke="midnightblue" points="396.647,-432.529 386.258,-434.604 395.673,-439.46 396.647,-432.529"/>
</g>
<!-- Node7 -->
<g id="node7" class="node"><title>Node7</title>
<g id="a_node7"><a xlink:href="class_ogre_1_1_g_l_e_s2_f_b_o_multi_render_target.html" target="_top" xlink:title="MultiRenderTarget for GL ES 2.x. ">
<polygon fill="none" stroke="black" points="430,-387 430,-417 578,-417 578,-387 430,-387"/>
<text text-anchor="start" x="438" y="-405" font-family="Helvetica,sans-Serif" font-size="10.00">Ogre::GLES2FBOMultiRender</text>
<text text-anchor="middle" x="504" y="-394" font-family="Helvetica,sans-Serif" font-size="10.00">Target</text>
</a>
</g>
</g>
<!-- Node3&#45;&gt;Node7 -->
<g id="edge6" class="edge"><title>Node3&#45;&gt;Node7</title>
<path fill="none" stroke="midnightblue" d="M396.306,-416.386C407.386,-414.892 418.848,-413.346 429.967,-411.847"/>
<polygon fill="midnightblue" stroke="midnightblue" points="395.7,-412.936 386.258,-417.741 396.636,-419.873 395.7,-412.936"/>
</g>
<!-- Node8 -->
<g id="node8" class="node"><title>Node8</title>
<g id="a_node8"><a xlink:href="class_ogre_1_1_g_l_f_b_o_multi_render_target.html" target="_top" xlink:title="MultiRenderTarget for GL. ">
<polygon fill="none" stroke="black" points="425.5,-348.5 425.5,-367.5 582.5,-367.5 582.5,-348.5 425.5,-348.5"/>
<text text-anchor="middle" x="504" y="-355.5" font-family="Helvetica,sans-Serif" font-size="10.00">Ogre::GLFBOMultiRenderTarget</text>
</a>
</g>
</g>
<!-- Node3&#45;&gt;Node8 -->
<g id="edge7" class="edge"><title>Node3&#45;&gt;Node8</title>
<path fill="none" stroke="midnightblue" d="M349.644,-411.49C368.827,-400.71 396.404,-386.317 422,-377 432.18,-373.295 443.347,-370.13 454.05,-367.506"/>
<polygon fill="midnightblue" stroke="midnightblue" points="347.897,-408.457 340.947,-416.454 351.367,-414.536 347.897,-408.457"/>
</g>
<!-- Node10 -->
<g id="node10" class="node"><title>Node10</title>
<g id="a_node10"><a xlink:href="class_ogre_1_1_d3_d11_render_texture.html" target="_top" xlink:title="RenderTexture implementation for D3D11. ">
<polygon fill="none" stroke="black" points="434.5,-310.5 434.5,-329.5 573.5,-329.5 573.5,-310.5 434.5,-310.5"/>
<text text-anchor="middle" x="504" y="-317.5" font-family="Helvetica,sans-Serif" font-size="10.00">Ogre::D3D11RenderTexture</text>
</a>
</g>
</g>
<!-- Node9&#45;&gt;Node10 -->
<g id="edge9" class="edge"><title>Node9&#45;&gt;Node10</title>
<path fill="none" stroke="midnightblue" d="M346.722,-259.349C365.763,-272.158 394.605,-290.032 422,-301 431.387,-304.758 441.696,-307.882 451.722,-310.437"/>
<polygon fill="midnightblue" stroke="midnightblue" points="348.686,-256.453 338.457,-253.692 344.732,-262.229 348.686,-256.453"/>
</g>
<!-- Node11 -->
<g id="node11" class="node"><title>Node11</title>
<g id="a_node11"><a xlink:href="class_ogre_1_1_d3_d9_render_texture.html" target="_top" xlink:title="RenderTexture implementation for D3D9. ">
<polygon fill="none" stroke="black" points="437,-272.5 437,-291.5 571,-291.5 571,-272.5 437,-272.5"/>
<text text-anchor="middle" x="504" y="-279.5" font-family="Helvetica,sans-Serif" font-size="10.00">Ogre::D3D9RenderTexture</text>
</a>
</g>
</g>
<!-- Node9&#45;&gt;Node11 -->
<g id="edge10" class="edge"><title>Node9&#45;&gt;Node11</title>
<path fill="none" stroke="midnightblue" d="M379.716,-255.681C404.959,-261.07 434.545,-267.386 458.406,-272.48"/>
<polygon fill="midnightblue" stroke="midnightblue" points="380.427,-252.254 369.917,-253.589 378.966,-259.1 380.427,-252.254"/>
</g>
<!-- Node12 -->
<g id="node12" class="node"><title>Node12</title>
<g id="a_node12"><a xlink:href="class_ogre_1_1_g_l3_plus_render_texture.html" target="_top" xlink:title="Base class for GL Render Textures. ">
<polygon fill="none" stroke="black" points="431,-234.5 431,-253.5 577,-253.5 577,-234.5 431,-234.5"/>
<text text-anchor="middle" x="504" y="-241.5" font-family="Helvetica,sans-Serif" font-size="10.00">Ogre::GL3PlusRenderTexture</text>
</a>
</g>
</g>
<!-- Node9&#45;&gt;Node12 -->
<g id="edge11" class="edge"><title>Node9&#45;&gt;Node12</title>
<path fill="none" stroke="midnightblue" d="M388.67,-244C402.346,-244 416.892,-244 430.863,-244"/>
<polygon fill="midnightblue" stroke="midnightblue" points="388.406,-240.5 378.406,-244 388.406,-247.5 388.406,-240.5"/>
</g>
<!-- Node14 -->
<g id="node14" class="node"><title>Node14</title>
<g id="a_node14"><a xlink:href="class_ogre_1_1_g_l_e_s2_render_texture.html" target="_top" xlink:title="Base class for GL Render Textures. ">
<polygon fill="none" stroke="black" points="434,-196.5 434,-215.5 574,-215.5 574,-196.5 434,-196.5"/>
<text text-anchor="middle" x="504" y="-203.5" font-family="Helvetica,sans-Serif" font-size="10.00">Ogre::GLES2RenderTexture</text>
</a>
</g>
</g>
<!-- Node9&#45;&gt;Node14 -->
<g id="edge13" class="edge"><title>Node9&#45;&gt;Node14</title>
<path fill="none" stroke="midnightblue" d="M379.716,-232.319C404.959,-226.93 434.545,-220.614 458.406,-215.52"/>
<polygon fill="midnightblue" stroke="midnightblue" points="378.966,-228.9 369.917,-234.411 380.427,-235.746 378.966,-228.9"/>
</g>
<!-- Node16 -->
<g id="node16" class="node"><title>Node16</title>
<g id="a_node16"><a xlink:href="class_ogre_1_1_g_l_render_texture.html" target="_top" xlink:title="Base class for GL Render Textures. ">
<polygon fill="none" stroke="black" points="443.5,-136.5 443.5,-155.5 564.5,-155.5 564.5,-136.5 443.5,-136.5"/>
<text text-anchor="middle" x="504" y="-143.5" font-family="Helvetica,sans-Serif" font-size="10.00">Ogre::GLRenderTexture</text>
</a>
</g>
</g>
<!-- Node9&#45;&gt;Node16 -->
<g id="edge15" class="edge"><title>Node9&#45;&gt;Node16</title>
<path fill="none" stroke="midnightblue" d="M349.172,-229.227C368.651,-217.46 396.843,-200.741 422,-187 442.61,-175.743 466.669,-163.7 483.179,-155.6"/>
<polygon fill="midnightblue" stroke="midnightblue" points="347.355,-226.235 340.619,-234.413 350.985,-232.22 347.355,-226.235"/>
</g>
<!-- Node13 -->
<g id="node13" class="node"><title>Node13</title>
<g id="a_node13"><a xlink:href="class_ogre_1_1_g_l3_plus_f_b_o_render_texture.html" target="_top" xlink:title="RenderTexture for GL FBO. ">
<polygon fill="none" stroke="black" points="622,-251.5 622,-270.5 788,-270.5 788,-251.5 622,-251.5"/>
<text text-anchor="middle" x="705" y="-258.5" font-family="Helvetica,sans-Serif" font-size="10.00">Ogre::GL3PlusFBORenderTexture</text>
</a>
</g>
</g>
<!-- Node12&#45;&gt;Node13 -->
<g id="edge12" class="edge"><title>Node12&#45;&gt;Node13</title>
<path fill="none" stroke="midnightblue" d="M587.143,-251.017C598.656,-252.001 610.488,-253.012 621.998,-253.995"/>
<polygon fill="midnightblue" stroke="midnightblue" points="587.387,-247.525 577.125,-250.161 586.791,-254.5 587.387,-247.525"/>
</g>
<!-- Node15 -->
<g id="node15" class="node"><title>Node15</title>
<g id="a_node15"><a xlink:href="class_ogre_1_1_g_l_e_s2_copying_render_texture.html" target="_top" xlink:title="Ogre::GLES2CopyingRender\lTexture">
<polygon fill="none" stroke="black" points="633.5,-202 633.5,-232 776.5,-232 776.5,-202 633.5,-202"/>
<text text-anchor="start" x="641.5" y="-220" font-family="Helvetica,sans-Serif" font-size="10.00">Ogre::GLES2CopyingRender</text>
<text text-anchor="middle" x="705" y="-209" font-family="Helvetica,sans-Serif" font-size="10.00">Texture</text>
</a>
</g>
</g>
<!-- Node14&#45;&gt;Node15 -->
<g id="edge14" class="edge"><title>Node14&#45;&gt;Node15</title>
<path fill="none" stroke="midnightblue" d="M584.072,-210.371C600.365,-211.271 617.423,-212.214 633.393,-213.097"/>
<polygon fill="midnightblue" stroke="midnightblue" points="584.22,-206.874 574.042,-209.816 583.834,-213.863 584.22,-206.874"/>
</g>
<!-- Node17 -->
<g id="node17" class="node"><title>Node17</title>
<g id="a_node17"><a xlink:href="class_ogre_1_1_g_l_copying_render_texture.html" target="_top" xlink:title="Ogre::GLCopyingRenderTexture">
<polygon fill="none" stroke="black" points="626.5,-163.5 626.5,-182.5 783.5,-182.5 783.5,-163.5 626.5,-163.5"/>
<text text-anchor="middle" x="705" y="-170.5" font-family="Helvetica,sans-Serif" font-size="10.00">Ogre::GLCopyingRenderTexture</text>
</a>
</g>
</g>
<!-- Node16&#45;&gt;Node17 -->
<g id="edge16" class="edge"><title>Node16&#45;&gt;Node17</title>
<path fill="none" stroke="midnightblue" d="M574.841,-155.476C593.961,-158.07 614.689,-160.882 633.827,-163.479"/>
<polygon fill="midnightblue" stroke="midnightblue" points="575.086,-151.977 564.707,-154.101 574.145,-158.914 575.086,-151.977"/>
</g>
<!-- Node18 -->
<g id="node18" class="node"><title>Node18</title>
<g id="a_node18"><a xlink:href="class_ogre_1_1_g_l_f_b_o_render_texture.html" target="_top" xlink:title="RenderTexture for GL FBO. ">
<polygon fill="none" stroke="black" points="634.5,-125.5 634.5,-144.5 775.5,-144.5 775.5,-125.5 634.5,-125.5"/>
<text text-anchor="middle" x="705" y="-132.5" font-family="Helvetica,sans-Serif" font-size="10.00">Ogre::GLFBORenderTexture</text>
</a>
</g>
</g>
<!-- Node16&#45;&gt;Node18 -->
<g id="edge17" class="edge"><title>Node16&#45;&gt;Node18</title>
<path fill="none" stroke="midnightblue" d="M574.895,-142.136C594.119,-141.074 614.964,-139.922 634.183,-138.859"/>
<polygon fill="midnightblue" stroke="midnightblue" points="574.498,-138.653 564.707,-142.7 574.885,-145.642 574.498,-138.653"/>
</g>
<!-- Node19 -->
<g id="node19" class="node"><title>Node19</title>
<g id="a_node19"><a xlink:href="class_ogre_1_1_g_l_p_b_render_texture.html" target="_top" xlink:title="Ogre::GLPBRenderTexture">
<polygon fill="none" stroke="black" points="638,-87.5 638,-106.5 772,-106.5 772,-87.5 638,-87.5"/>
<text text-anchor="middle" x="705" y="-94.5" font-family="Helvetica,sans-Serif" font-size="10.00">Ogre::GLPBRenderTexture</text>
</a>
</g>
</g>
<!-- Node16&#45;&gt;Node19 -->
<g id="edge18" class="edge"><title>Node16&#45;&gt;Node19</title>
<path fill="none" stroke="midnightblue" d="M551.164,-133.899C572.666,-128.33 598.61,-121.708 622,-116 634.919,-112.847 649.015,-109.535 661.818,-106.576"/>
<polygon fill="midnightblue" stroke="midnightblue" points="550.109,-130.556 541.31,-136.457 551.868,-137.332 550.109,-130.556"/>
</g>
<!-- Node21 -->
<g id="node21" class="node"><title>Node21</title>
<g id="a_node21"><a xlink:href="class_ogre_1_1_d3_d11_render_window_base.html" target="_top" xlink:title="Ogre::D3D11RenderWindowBase">
<polygon fill="none" stroke="black" points="422,-76.5 422,-95.5 586,-95.5 586,-76.5 422,-76.5"/>
<text text-anchor="middle" x="504" y="-83.5" font-family="Helvetica,sans-Serif" font-size="10.00">Ogre::D3D11RenderWindowBase</text>
</a>
</g>
</g>
<!-- Node20&#45;&gt;Node21 -->
<g id="edge20" class="edge"><title>Node20&#45;&gt;Node21</title>
<path fill="none" stroke="midnightblue" d="M389.627,-73.8984C400.066,-75.0126 410.99,-76.1787 421.761,-77.3284"/>
<polygon fill="midnightblue" stroke="midnightblue" points="389.688,-70.3851 379.373,-72.8039 388.945,-77.3456 389.688,-70.3851"/>
</g>
<!-- Node23 -->
<g id="node23" class="node"><title>Node23</title>
<g id="a_node23"><a xlink:href="class_ogre_1_1_d3_d9_render_window.html" target="_top" xlink:title="Ogre::D3D9RenderWindow">
<polygon fill="none" stroke="black" points="436,-38.5 436,-57.5 572,-57.5 572,-38.5 436,-38.5"/>
<text text-anchor="middle" x="504" y="-45.5" font-family="Helvetica,sans-Serif" font-size="10.00">Ogre::D3D9RenderWindow</text>
</a>
</g>
</g>
<!-- Node20&#45;&gt;Node23 -->
<g id="edge22" class="edge"><title>Node20&#45;&gt;Node23</title>
<path fill="none" stroke="midnightblue" d="M389.587,-60.1059C404.606,-58.5027 420.631,-56.7922 435.761,-55.1772"/>
<polygon fill="midnightblue" stroke="midnightblue" points="388.945,-56.6544 379.373,-61.1961 389.688,-63.6149 388.945,-56.6544"/>
</g>
<!-- Node24 -->
<g id="node24" class="node"><title>Node24</title>
<g id="a_node24"><a xlink:href="class_ogre_1_1_na_cl_window.html" target="_top" xlink:title="Ogre::NaClWindow">
<polygon fill="none" stroke="black" points="453.5,-0.5 453.5,-19.5 554.5,-19.5 554.5,-0.5 453.5,-0.5"/>
<text text-anchor="middle" x="504" y="-7.5" font-family="Helvetica,sans-Serif" font-size="10.00">Ogre::NaClWindow</text>
</a>
</g>
</g>
<!-- Node20&#45;&gt;Node24 -->
<g id="edge23" class="edge"><title>Node20&#45;&gt;Node24</title>
<path fill="none" stroke="midnightblue" d="M355.923,-53.5781C374.778,-45.7239 399.501,-36.0063 422,-29 433.309,-25.4784 445.683,-22.2634 457.281,-19.52"/>
<polygon fill="midnightblue" stroke="midnightblue" points="354.496,-50.3815 346.641,-57.4913 357.215,-56.8317 354.496,-50.3815"/>
</g>
<!-- Node22 -->
<g id="node22" class="node"><title>Node22</title>
<g id="a_node22"><a xlink:href="class_ogre_1_1_d3_d11_render_window_swap_chain_based.html" target="_top" xlink:title="Ogre::D3D11RenderWindowSwap\lChainBased">
<polygon fill="none" stroke="black" points="622,-38 622,-68 788,-68 788,-38 622,-38"/>
<text text-anchor="start" x="630" y="-56" font-family="Helvetica,sans-Serif" font-size="10.00">Ogre::D3D11RenderWindowSwap</text>
<text text-anchor="middle" x="705" y="-45" font-family="Helvetica,sans-Serif" font-size="10.00">ChainBased</text>
</a>
</g>
</g>
<!-- Node21&#45;&gt;Node22 -->
<g id="edge21" class="edge"><title>Node21&#45;&gt;Node22</title>
<path fill="none" stroke="midnightblue" d="M572.534,-74.801C588.415,-72.1674 605.511,-69.3323 621.952,-66.606"/>
<polygon fill="midnightblue" stroke="midnightblue" points="571.585,-71.4104 562.292,-76.4993 572.73,-78.3161 571.585,-71.4104"/>
</g>
</g>
</svg>
