<?xml version="1.0" encoding="UTF-8" standalone="no"?>
<!DOCTYPE svg PUBLIC "-//W3C//DTD SVG 1.1//EN"
 "http://www.w3.org/Graphics/SVG/1.1/DTD/svg11.dtd">
<!-- Generated by graphviz version 2.38.0 (20140413.2041)
 -->
<!-- Title: Ogre::RenderTexture Pages: 1 -->
<svg width="762pt" height="262pt"
 viewBox="0.00 0.00 762.00 262.00" xmlns="http://www.w3.org/2000/svg" xmlns:xlink="http://www.w3.org/1999/xlink">
<g id="graph0" class="graph" transform="scale(1 1) rotate(0) translate(4 258)">
<title>Ogre::RenderTexture</title>
<!-- Node1 -->
<g id="node1" class="node"><title>Node1</title>
<polygon fill="#bfbfbf" stroke="black" points="262,-158.5 262,-177.5 370,-177.5 370,-158.5 262,-158.5"/>
<text text-anchor="middle" x="316" y="-165.5" font-family="Helvetica,sans-Serif" font-size="10.00">Ogre::RenderTexture</text>
</g>
<!-- Node4 -->
<g id="node4" class="node"><title>Node4</title>
<g id="a_node4"><a xlink:href="class_ogre_1_1_d3_d11_render_texture.html" target="_top" xlink:title="RenderTexture implementation for D3D11. ">
<polygon fill="none" stroke="black" points="409.5,-234.5 409.5,-253.5 548.5,-253.5 548.5,-234.5 409.5,-234.5"/>
<text text-anchor="middle" x="479" y="-241.5" font-family="Helvetica,sans-Serif" font-size="10.00">Ogre::D3D11RenderTexture</text>
</a>
</g>
</g>
<!-- Node1&#45;&gt;Node4 -->
<g id="edge3" class="edge"><title>Node1&#45;&gt;Node4</title>
<path fill="none" stroke="midnightblue" d="M337.52,-183.782C354.917,-196.495 380.964,-214.005 406,-225 414.522,-228.743 423.946,-231.883 433.09,-234.464"/>
<polygon fill="midnightblue" stroke="midnightblue" points="339.372,-180.797 329.262,-177.63 335.191,-186.411 339.372,-180.797"/>
</g>
<!-- Node5 -->
<g id="node5" class="node"><title>Node5</title>
<g id="a_node5"><a xlink:href="class_ogre_1_1_d3_d9_render_texture.html" target="_top" xlink:title="RenderTexture implementation for D3D9. ">
<polygon fill="none" stroke="black" points="412,-196.5 412,-215.5 546,-215.5 546,-196.5 412,-196.5"/>
<text text-anchor="middle" x="479" y="-203.5" font-family="Helvetica,sans-Serif" font-size="10.00">Ogre::D3D9RenderTexture</text>
</a>
</g>
</g>
<!-- Node1&#45;&gt;Node5 -->
<g id="edge4" class="edge"><title>Node1&#45;&gt;Node5</title>
<path fill="none" stroke="midnightblue" d="M367.402,-179.896C390.032,-185.237 416.37,-191.454 437.665,-196.48"/>
<polygon fill="midnightblue" stroke="midnightblue" points="368.164,-176.48 357.627,-177.589 366.556,-183.293 368.164,-176.48"/>
</g>
<!-- Node6 -->
<g id="node6" class="node"><title>Node6</title>
<g id="a_node6"><a xlink:href="class_ogre_1_1_g_l3_plus_render_texture.html" target="_top" xlink:title="Base class for GL Render Textures. ">
<polygon fill="none" stroke="black" points="406,-158.5 406,-177.5 552,-177.5 552,-158.5 406,-158.5"/>
<text text-anchor="middle" x="479" y="-165.5" font-family="Helvetica,sans-Serif" font-size="10.00">Ogre::GL3PlusRenderTexture</text>
</a>
</g>
</g>
<!-- Node1&#45;&gt;Node6 -->
<g id="edge5" class="edge"><title>Node1&#45;&gt;Node6</title>
<path fill="none" stroke="midnightblue" d="M380.276,-168C388.695,-168 397.377,-168 405.931,-168"/>
<polygon fill="midnightblue" stroke="midnightblue" points="380.164,-164.5 370.164,-168 380.164,-171.5 380.164,-164.5"/>
</g>
<!-- Node8 -->
<g id="node8" class="node"><title>Node8</title>
<g id="a_node8"><a xlink:href="class_ogre_1_1_g_l_e_s2_render_texture.html" target="_top" xlink:title="Base class for GL Render Textures. ">
<polygon fill="none" stroke="black" points="409,-120.5 409,-139.5 549,-139.5 549,-120.5 409,-120.5"/>
<text text-anchor="middle" x="479" y="-127.5" font-family="Helvetica,sans-Serif" font-size="10.00">Ogre::GLES2RenderTexture</text>
</a>
</g>
</g>
<!-- Node1&#45;&gt;Node8 -->
<g id="edge7" class="edge"><title>Node1&#45;&gt;Node8</title>
<path fill="none" stroke="midnightblue" d="M367.402,-156.104C390.032,-150.763 416.37,-144.546 437.665,-139.52"/>
<polygon fill="midnightblue" stroke="midnightblue" points="366.556,-152.707 357.627,-158.411 368.164,-159.52 366.556,-152.707"/>
</g>
<!-- Node10 -->
<g id="node10" class="node"><title>Node10</title>
<g id="a_node10"><a xlink:href="class_ogre_1_1_g_l_render_texture.html" target="_top" xlink:title="Base class for GL Render Textures. ">
<polygon fill="none" stroke="black" points="418.5,-57.5 418.5,-76.5 539.5,-76.5 539.5,-57.5 418.5,-57.5"/>
<text text-anchor="middle" x="479" y="-64.5" font-family="Helvetica,sans-Serif" font-size="10.00">Ogre::GLRenderTexture</text>
</a>
</g>
</g>
<!-- Node1&#45;&gt;Node10 -->
<g id="edge9" class="edge"><title>Node1&#45;&gt;Node10</title>
<path fill="none" stroke="midnightblue" d="M340.37,-152.843C358.271,-141.279 383.614,-125.006 406,-111 425.249,-98.9561 447.583,-85.3666 462.21,-76.5182"/>
<polygon fill="midnightblue" stroke="midnightblue" points="338.237,-150.054 331.742,-158.424 342.04,-155.931 338.237,-150.054"/>
</g>
<!-- Node2 -->
<g id="node2" class="node"><title>Node2</title>
<g id="a_node2"><a xlink:href="class_ogre_1_1_render_target.html" target="_top" xlink:title="A &#39;canvas&#39; which can receive the results of a rendering operation. ">
<polygon fill="none" stroke="black" points="123,-158.5 123,-177.5 226,-177.5 226,-158.5 123,-158.5"/>
<text text-anchor="middle" x="174.5" y="-165.5" font-family="Helvetica,sans-Serif" font-size="10.00">Ogre::RenderTarget</text>
</a>
</g>
</g>
<!-- Node2&#45;&gt;Node1 -->
<g id="edge1" class="edge"><title>Node2&#45;&gt;Node1</title>
<path fill="none" stroke="midnightblue" d="M236.41,-168C244.832,-168 253.429,-168 261.698,-168"/>
<polygon fill="midnightblue" stroke="midnightblue" points="236.257,-164.5 226.257,-168 236.257,-171.5 236.257,-164.5"/>
</g>
<!-- Node3 -->
<g id="node3" class="node"><title>Node3</title>
<g id="a_node3"><a xlink:href="class_ogre_1_1_allocated_object.html" target="_top" xlink:title="Superclass for all objects that wish to use custom memory allocators when their new / delete operator...">
<polygon fill="none" stroke="black" points="0,-158.5 0,-177.5 87,-177.5 87,-158.5 0,-158.5"/>
<text text-anchor="middle" x="43.5" y="-165.5" font-family="Helvetica,sans-Serif" font-size="10.00">RenderSysAlloc</text>
</a>
</g>
</g>
<!-- Node3&#45;&gt;Node2 -->
<g id="edge2" class="edge"><title>Node3&#45;&gt;Node2</title>
<path fill="none" stroke="midnightblue" d="M97.2458,-168C105.713,-168 114.461,-168 122.877,-168"/>
<polygon fill="midnightblue" stroke="midnightblue" points="97.097,-164.5 87.0969,-168 97.0969,-171.5 97.097,-164.5"/>
</g>
<!-- Node7 -->
<g id="node7" class="node"><title>Node7</title>
<g id="a_node7"><a xlink:href="class_ogre_1_1_g_l3_plus_f_b_o_render_texture.html" target="_top" xlink:title="RenderTexture for GL FBO. ">
<polygon fill="none" stroke="black" points="588,-164.5 588,-183.5 754,-183.5 754,-164.5 588,-164.5"/>
<text text-anchor="middle" x="671" y="-171.5" font-family="Helvetica,sans-Serif" font-size="10.00">Ogre::GL3PlusFBORenderTexture</text>
</a>
</g>
</g>
<!-- Node6&#45;&gt;Node7 -->
<g id="edge6" class="edge"><title>Node6&#45;&gt;Node7</title>
<path fill="none" stroke="midnightblue" d="M562.311,-170.599C570.751,-170.866 579.327,-171.137 587.767,-171.403"/>
<polygon fill="midnightblue" stroke="midnightblue" points="562.207,-167.094 552.102,-170.277 561.986,-174.091 562.207,-167.094"/>
</g>
<!-- Node9 -->
<g id="node9" class="node"><title>Node9</title>
<g id="a_node9"><a xlink:href="class_ogre_1_1_g_l_e_s2_copying_render_texture.html" target="_top" xlink:title="Ogre::GLES2CopyingRender\lTexture">
<polygon fill="none" stroke="black" points="599.5,-115 599.5,-145 742.5,-145 742.5,-115 599.5,-115"/>
<text text-anchor="start" x="607.5" y="-133" font-family="Helvetica,sans-Serif" font-size="10.00">Ogre::GLES2CopyingRender</text>
<text text-anchor="middle" x="671" y="-122" font-family="Helvetica,sans-Serif" font-size="10.00">Texture</text>
</a>
</g>
</g>
<!-- Node8&#45;&gt;Node9 -->
<g id="edge8" class="edge"><title>Node8&#45;&gt;Node9</title>
<path fill="none" stroke="midnightblue" d="M559.208,-130C572.516,-130 586.25,-130 599.325,-130"/>
<polygon fill="midnightblue" stroke="midnightblue" points="559.132,-126.5 549.132,-130 559.132,-133.5 559.132,-126.5"/>
</g>
<!-- Node11 -->
<g id="node11" class="node"><title>Node11</title>
<g id="a_node11"><a xlink:href="class_ogre_1_1_g_l_copying_render_texture.html" target="_top" xlink:title="Ogre::GLCopyingRenderTexture">
<polygon fill="none" stroke="black" points="592.5,-76.5 592.5,-95.5 749.5,-95.5 749.5,-76.5 592.5,-76.5"/>
<text text-anchor="middle" x="671" y="-83.5" font-family="Helvetica,sans-Serif" font-size="10.00">Ogre::GLCopyingRenderTexture</text>
</a>
</g>
</g>
<!-- Node10&#45;&gt;Node11 -->
<g id="edge10" class="edge"><title>Node10&#45;&gt;Node11</title>
<path fill="none" stroke="midnightblue" d="M549.593,-73.9593C563.541,-75.3541 578.277,-76.8277 592.474,-78.2474"/>
<polygon fill="midnightblue" stroke="midnightblue" points="549.895,-70.4721 539.596,-72.9596 549.198,-77.4373 549.895,-70.4721"/>
</g>
<!-- Node12 -->
<g id="node12" class="node"><title>Node12</title>
<g id="a_node12"><a xlink:href="class_ogre_1_1_g_l_f_b_o_render_texture.html" target="_top" xlink:title="RenderTexture for GL FBO. ">
<polygon fill="none" stroke="black" points="600.5,-38.5 600.5,-57.5 741.5,-57.5 741.5,-38.5 600.5,-38.5"/>
<text text-anchor="middle" x="671" y="-45.5" font-family="Helvetica,sans-Serif" font-size="10.00">Ogre::GLFBORenderTexture</text>
</a>
</g>
</g>
<!-- Node10&#45;&gt;Node12 -->
<g id="edge11" class="edge"><title>Node10&#45;&gt;Node12</title>
<path fill="none" stroke="midnightblue" d="M549.709,-60.0291C566.212,-58.3788 583.813,-56.6187 600.314,-54.9686"/>
<polygon fill="midnightblue" stroke="midnightblue" points="549.198,-56.5627 539.596,-61.0404 549.895,-63.5279 549.198,-56.5627"/>
</g>
<!-- Node13 -->
<g id="node13" class="node"><title>Node13</title>
<g id="a_node13"><a xlink:href="class_ogre_1_1_g_l_p_b_render_texture.html" target="_top" xlink:title="Ogre::GLPBRenderTexture">
<polygon fill="none" stroke="black" points="604,-0.5 604,-19.5 738,-19.5 738,-0.5 604,-0.5"/>
<text text-anchor="middle" x="671" y="-7.5" font-family="Helvetica,sans-Serif" font-size="10.00">Ogre::GLPBRenderTexture</text>
</a>
</g>
</g>
<!-- Node10&#45;&gt;Node13 -->
<g id="edge12" class="edge"><title>Node10&#45;&gt;Node13</title>
<path fill="none" stroke="midnightblue" d="M514.113,-53.9077C535.21,-46.0839 562.955,-36.2832 588,-29 599.787,-25.5722 612.667,-22.3483 624.654,-19.5635"/>
<polygon fill="midnightblue" stroke="midnightblue" points="512.765,-50.6749 504.627,-57.4583 515.219,-57.2308 512.765,-50.6749"/>
</g>
</g>
</svg>
