<?xml version="1.0" encoding="UTF-8" standalone="no"?>
<!DOCTYPE svg PUBLIC "-//W3C//DTD SVG 1.1//EN"
 "http://www.w3.org/Graphics/SVG/1.1/DTD/svg11.dtd">
<!-- Generated by graphviz version 2.38.0 (20140413.2041)
 -->
<!-- Title: Graphical Class Hierarchy Pages: 1 -->
<svg width="514pt" height="104pt"
 viewBox="0.00 0.00 514.00 104.00" xmlns="http://www.w3.org/2000/svg" xmlns:xlink="http://www.w3.org/1999/xlink">
<g id="graph0" class="graph" transform="scale(1 1) rotate(0) translate(4 100)">
<title>Graphical Class Hierarchy</title>
<!-- Node1 -->
<g id="node1" class="node"><title>Node1</title>
<g id="a_node1"><a xlink:href="class_ogre_1_1_singleton.html" target="_top" xlink:title="Ogre::Singleton\&lt; GLRTTManager \&gt;">
<polygon fill="none" stroke="black" points="0,-38.5 0,-57.5 172,-57.5 172,-38.5 0,-38.5"/>
<text text-anchor="middle" x="86" y="-45.5" font-family="Helvetica,sans-Serif" font-size="10.00">Ogre::Singleton&lt; GLRTTManager &gt;</text>
</a>
</g>
</g>
<!-- Node2 -->
<g id="node2" class="node"><title>Node2</title>
<g id="a_node2"><a xlink:href="class_ogre_1_1_g_l_r_t_t_manager.html" target="_top" xlink:title="Manager/factory for RenderTextures. ">
<polygon fill="none" stroke="black" points="208,-38.5 208,-57.5 321,-57.5 321,-38.5 208,-38.5"/>
<text text-anchor="middle" x="264.5" y="-45.5" font-family="Helvetica,sans-Serif" font-size="10.00">Ogre::GLRTTManager</text>
</a>
</g>
</g>
<!-- Node1&#45;&gt;Node2 -->
<g id="edge1" class="edge"><title>Node1&#45;&gt;Node2</title>
<path fill="none" stroke="midnightblue" d="M182.41,-48C191.133,-48 199.762,-48 207.953,-48"/>
<polygon fill="midnightblue" stroke="midnightblue" points="182.148,-44.5001 172.148,-48 182.148,-51.5001 182.148,-44.5001"/>
</g>
<!-- Node3 -->
<g id="node3" class="node"><title>Node3</title>
<g id="a_node3"><a xlink:href="class_ogre_1_1_g_l_copying_r_t_t_manager.html" target="_top" xlink:title="Simple, copying manager/factory for RenderTextures. ">
<polygon fill="none" stroke="black" points="357,-76.5 357,-95.5 506,-95.5 506,-76.5 357,-76.5"/>
<text text-anchor="middle" x="431.5" y="-83.5" font-family="Helvetica,sans-Serif" font-size="10.00">Ogre::GLCopyingRTTManager</text>
</a>
</g>
</g>
<!-- Node2&#45;&gt;Node3 -->
<g id="edge2" class="edge"><title>Node2&#45;&gt;Node3</title>
<path fill="none" stroke="midnightblue" d="M317.154,-59.8961C340.346,-65.2374 367.338,-71.4537 389.163,-76.4799"/>
<polygon fill="midnightblue" stroke="midnightblue" points="317.667,-56.4226 307.136,-57.589 316.096,-63.2441 317.667,-56.4226"/>
</g>
<!-- Node4 -->
<g id="node4" class="node"><title>Node4</title>
<g id="a_node4"><a xlink:href="class_ogre_1_1_g_l_f_b_o_manager.html" target="_top" xlink:title="Factory for GL Frame Buffer Objects, and related things. ">
<polygon fill="none" stroke="black" points="374.5,-38.5 374.5,-57.5 488.5,-57.5 488.5,-38.5 374.5,-38.5"/>
<text text-anchor="middle" x="431.5" y="-45.5" font-family="Helvetica,sans-Serif" font-size="10.00">Ogre::GLFBOManager</text>
</a>
</g>
</g>
<!-- Node2&#45;&gt;Node4 -->
<g id="edge3" class="edge"><title>Node2&#45;&gt;Node4</title>
<path fill="none" stroke="midnightblue" d="M331.557,-48C345.758,-48 360.636,-48 374.415,-48"/>
<polygon fill="midnightblue" stroke="midnightblue" points="331.362,-44.5001 321.361,-48 331.361,-51.5001 331.362,-44.5001"/>
</g>
<!-- Node5 -->
<g id="node5" class="node"><title>Node5</title>
<g id="a_node5"><a xlink:href="class_ogre_1_1_g_l_p_b_r_t_t_manager.html" target="_top" xlink:title="Manager for rendertextures and PBuffers (offscreen rendering contexts) ">
<polygon fill="none" stroke="black" points="368,-0.5 368,-19.5 495,-19.5 495,-0.5 368,-0.5"/>
<text text-anchor="middle" x="431.5" y="-7.5" font-family="Helvetica,sans-Serif" font-size="10.00">Ogre::GLPBRTTManager</text>
</a>
</g>
</g>
<!-- Node2&#45;&gt;Node5 -->
<g id="edge4" class="edge"><title>Node2&#45;&gt;Node5</title>
<path fill="none" stroke="midnightblue" d="M317.154,-36.1039C340.346,-30.7626 367.338,-24.5463 389.163,-19.5201"/>
<polygon fill="midnightblue" stroke="midnightblue" points="316.096,-32.7559 307.136,-38.411 317.667,-39.5774 316.096,-32.7559"/>
</g>
</g>
</svg>
